<?xml version="1.0" encoding="UTF-8" standalone="no"?>
<!DOCTYPE svg PUBLIC "-//W3C//DTD SVG 1.1//EN" "http://www.w3.org/Graphics/SVG/1.1/DTD/svg11.dtd">
<svg xmlns="http://www.w3.org/2000/svg" xmlns:xlink="http://www.w3.org/1999/xlink" version="1.1" width="307.39pt" height="51.48pt" viewBox="0 0 307.39 51.48">
<g enable-background="new">
<path transform="matrix(.00359712,0,0,-.00359712,0,51.48)" d="M 1746.13 11497.8 C 1787.67 11497.8 1840.31 11497.8 1840.31 11553.3 C 1840.31 11608.7 1787.67 11608.7 1748.89 11608.7 L 89.5469 11608.7 C 50.7656 11608.7 -1.875 11608.7 -1.875 11553.3 C -1.875 11497.8 50.7656 11497.8 92.3125 11497.8 L 1746.13 11497.8 Z M 1748.89 10960.4 C 1787.67 10960.4 1840.31 10960.4 1840.31 11015.8 C 1840.31 11071.3 1787.67 11071.3 1746.13 11071.3 L 92.3125 11071.3 C 50.7656 11071.3 -1.875 11071.3 -1.875 11015.8 C -1.875 10960.4 50.7656 10960.4 89.5469 10960.4 L 1748.89 10960.4 "/>
<path transform="matrix(.00359712,0,0,-.00359712,0,51.48)" d="M 4591.55 11229.1 C 4638.64 11229.1 4688.52 11229.1 4688.52 11284.5 C 4688.52 11340 4638.64 11340 4591.55 11340 L 3092.88 11340 C 3045.78 11340 2995.92 11340 2995.92 11284.5 C 2995.92 11229.1 3045.78 11229.1 3092.88 11229.1 L 4591.55 11229.1 "/>
<path transform="matrix(.00359712,0,0,-.00359712,0,51.48)" d="M 6067.44 14238.9 C 6067.44 14305.4 6067.44 14310.9 6003.72 14310.9 C 5831.97 14133.7 5588.19 14133.7 5499.55 14133.7 L 5499.55 14047.8 C 5554.95 14047.8 5718.39 14047.8 5862.44 14119.8 L 5862.44 12684.8 C 5862.44 12585.1 5854.13 12551.9 5604.81 12551.9 L 5516.17 12551.9 L 5516.17 12466 C 5613.13 12474.3 5854.13 12474.3 5964.94 12474.3 C 6075.75 12474.3 6316.75 12474.3 6413.7 12466 L 6413.7 12551.9 L 6325.06 12551.9 C 6075.75 12551.9 6067.44 12582.3 6067.44 12684.8 L 6067.44 14238.9 "/>
<path transform="matrix(.00359712,0,0,-.00359712,0,51.48)" stroke-width="110.783" stroke-linecap="butt" stroke-miterlimit="10" stroke-linejoin="miter" fill="none" stroke="#000000" d="M 5252.53 11284.3 L 6637.53 11284.3 "/>
<path transform="matrix(.00359712,0,0,-.00359712,0,51.48)" d="M 5604.81 8905.3 L 5898.45 9190.64 C 6330.61 9572.92 6496.81 9722.52 6496.81 9999.53 C 6496.81 10315.3 6247.5 10536.9 5909.53 10536.9 C 5596.5 10536.9 5391.52 10282.1 5391.52 10035.5 C 5391.52 9880.41 5530.02 9880.41 5538.33 9880.41 C 5585.42 9880.41 5682.38 9913.66 5682.38 10027.2 C 5682.38 10099.3 5632.52 10171.3 5535.56 10171.3 C 5513.39 10171.3 5507.86 10171.3 5499.55 10168.5 C 5563.27 10348.6 5712.84 10451.1 5873.52 10451.1 C 6125.61 10451.1 6244.73 10226.7 6244.73 9999.53 C 6244.73 9777.91 6106.22 9559.06 5953.86 9387.31 L 5421.98 8794.5 C 5391.52 8764.03 5391.52 8758.48 5391.52 8692 L 6419.25 8692 L 6496.81 9174.02 L 6427.56 9174.02 C 6413.7 9090.91 6394.31 8969.02 6366.61 8927.47 C 6347.22 8905.3 6164.39 8905.3 6103.45 8905.3 L 5604.81 8905.3 "/>
<path transform="matrix(.00359712,0,0,-.00359712,0,51.48)" d="M 8596.33 12514.5 L 8197.42 12484 L 8197.42 12398.2 C 8391.33 12398.2 8413.48 12378.8 8413.48 12243 L 8413.48 10802.5 C 8413.48 10677.9 8383.02 10677.9 8197.42 10677.9 L 8197.42 10592 C 8288.83 10594.8 8435.66 10600.3 8504.91 10600.3 C 8574.16 10600.3 8709.91 10594.8 8812.39 10592 L 8812.39 10677.9 C 8626.8 10677.9 8596.33 10677.9 8596.33 10802.5 L 8596.33 12514.5 "/>
<path transform="matrix(.00359712,0,0,-.00359712,0,51.48)" d="M 9363.33 11816.4 L 8975.5 11786 L 8975.5 11700.1 C 9155.56 11700.1 9180.48 11683.5 9180.48 11547.7 L 9180.48 10802.5 C 9180.48 10677.9 9150.02 10677.9 8964.42 10677.9 L 8964.42 10592 C 9053.06 10594.8 9202.66 10600.3 9269.14 10600.3 C 9366.09 10600.3 9463.05 10594.8 9557.23 10592 L 9557.23 10677.9 C 9374.41 10677.9 9363.33 10691.7 9363.33 10799.8 L 9363.33 11816.4 Z M 9374.41 12298.4 C 9374.41 12387.1 9305.16 12445.3 9227.58 12445.3 C 9141.7 12445.3 9080.77 12370.5 9080.77 12298.4 C 9080.77 12223.6 9141.7 12151.6 9227.58 12151.6 C 9305.16 12151.6 9374.41 12209.8 9374.41 12298.4 "/>
<path transform="matrix(.00359712,0,0,-.00359712,0,51.48)" d="M 9945.72 11544.9 L 9945.72 10802.5 C 9945.72 10677.9 9915.25 10677.9 9729.64 10677.9 L 9729.64 10592 C 9826.61 10594.8 9967.88 10600.3 10042.7 10600.3 C 10114.7 10600.3 10258.8 10594.8 10352.9 10592 L 10352.9 10677.9 C 10167.3 10677.9 10136.9 10677.9 10136.9 10802.5 L 10136.9 11312.3 C 10136.9 11600.3 10333.5 11755.5 10510.8 11755.5 C 10685.4 11755.5 10715.8 11605.9 10715.8 11448 L 10715.8 10802.5 C 10715.8 10677.9 10685.4 10677.9 10499.8 10677.9 L 10499.8 10592 C 10596.7 10594.8 10738 10600.3 10812.8 10600.3 C 10884.8 10600.3 11028.9 10594.8 11123 10592 L 11123 10677.9 C 10937.5 10677.9 10907 10677.9 10907 10802.5 L 10907 11312.3 C 10907 11600.3 11103.7 11755.5 11281 11755.5 C 11455.5 11755.5 11485.9 11605.9 11485.9 11448 L 11485.9 10802.5 C 11485.9 10677.9 11455.5 10677.9 11269.9 10677.9 L 11269.9 10592 C 11366.8 10594.8 11508.1 10600.3 11582.9 10600.3 C 11654.9 10600.3 11799 10594.8 11893.2 10592 L 11893.2 10677.9 C 11749.1 10677.9 11679.9 10677.9 11677.1 10761 L 11677.1 11290.1 C 11677.1 11528.3 11677.1 11614.2 11591.2 11713.9 C 11552.4 11761 11461 11816.4 11300.3 11816.4 C 11067.6 11816.4 10945.8 11650.2 10898.7 11544.9 C 10859.9 11786 10654.9 11816.4 10530.2 11816.4 C 10328 11816.4 10197.8 11697.3 10120.3 11525.5 L 10120.3 11816.4 L 9729.64 11786 L 9729.64 11700.1 C 9923.56 11700.1 9945.72 11680.7 9945.72 11544.9 "/>
<path transform="matrix(.00359712,0,0,-.00359712,0,51.48)" d="M 8452.41 10117.5 C 8452.41 10159 8448.27 10159 8402.63 10159 C 8304.44 10070.5 8150.92 10070.5 8123.27 10070.5 L 8099.77 10070.5 L 8099.77 10009.7 L 8123.27 10009.7 C 8155.08 10009.7 8244.97 10013.8 8325.17 10048.4 L 8325.17 9356.94 C 8325.17 9314.06 8325.17 9298.84 8178.59 9298.84 L 8109.44 9298.84 L 8109.44 9238 C 8185.5 9243.53 8308.58 9243.53 8388.8 9243.53 C 8469 9243.53 8592.09 9243.53 8668.16 9238 L 8668.16 9298.84 L 8599 9298.84 C 8452.41 9298.84 8452.41 9314.06 8452.41 9356.94 L 8452.41 10117.5 "/>
<path transform="matrix(.00359712,0,0,-.00359712,0,51.48)" stroke-width="94.1586" stroke-linecap="butt" stroke-miterlimit="10" stroke-linejoin="miter" fill="none" stroke="#000000" d="M 7763.71 8978.3 L 8983.57 8978.3 "/>
<path transform="matrix(.00359712,0,0,-.00359712,0,51.48)" d="M 8033.67 7961.53 C 8025.38 7926.95 8010.16 7866.11 8010.16 7859.19 C 8010.16 7828.77 8035.06 7810.78 8061.33 7810.78 C 8082.08 7810.78 8112.5 7821.84 8127.72 7856.42 C 8129.09 7863.34 8145.69 7928.34 8153.98 7964.3 C 8201.02 8150.98 8201.02 8153.75 8203.78 8159.28 C 8221.75 8196.63 8321.33 8390.23 8490.05 8390.23 C 8557.81 8390.23 8586.84 8352.91 8586.84 8290.67 C 8586.84 8211.84 8528.77 8069.39 8496.95 7990.56 C 8490.05 7973.97 8483.13 7956 8483.13 7932.48 C 8483.13 7860.58 8552.28 7810.78 8633.88 7810.78 C 8781.84 7810.78 8857.91 7990.56 8857.91 8025.14 C 8857.91 8044.5 8834.39 8044.5 8828.86 8044.5 C 8805.36 8044.5 8803.97 8038.97 8795.67 8012.7 C 8769.39 7929.72 8705.78 7857.81 8639.41 7857.81 C 8607.59 7857.81 8597.91 7879.94 8597.91 7910.36 C 8597.91 7939.41 8603.44 7953.23 8615.89 7983.66 C 8639.41 8038.97 8703.02 8196.63 8703.02 8272.69 C 8703.02 8375.03 8629.72 8437.27 8498.34 8437.27 C 8372.5 8437.27 8285.38 8361.2 8236.97 8300.34 C 8230.05 8413.75 8119.42 8437.27 8068.25 8437.27 C 7929.95 8437.27 7889.84 8225.67 7889.84 8222.91 C 7889.84 8203.55 7911.97 8203.55 7918.89 8203.55 C 7942.41 8203.55 7945.17 8211.84 7950.7 8229.81 C 7971.44 8310.03 8003.25 8390.23 8061.33 8390.23 C 8108.36 8390.23 8118.03 8345.98 8118.03 8316.94 C 8118.03 8297.58 8104.2 8245.03 8095.91 8209.08 C 8086.22 8171.73 8072.39 8115.03 8065.48 8084.61 L 8033.67 7961.53 "/>
<path transform="matrix(.00359712,0,0,-.00359712,0,51.48)" d="M 11099.6 8931.14 C 10855.3 8752.78 10822.4 8498.81 10822.4 8496.88 C 10822.4 8467.8 10841.8 8467.8 10868.9 8467.8 C 10903.8 8467.8 10909.6 8467.8 10919.3 8500.75 C 10930.9 8549.22 10962 8673.3 11062.8 8779.92 C 11175.2 8898.19 11272.2 8927.27 11353.6 8952.47 C 11365.2 8956.34 11373 8967.98 11373 8977.67 C 11373 8997.06 11361.3 9000.94 11336.1 9008.69 C 11057 9097.88 10958.1 9295.63 10917.4 9466.23 C 10909.6 9489.48 10896 9489.48 10868.9 9489.48 C 10841.8 9489.48 10822.4 9489.48 10822.4 9460.41 C 10822.4 9456.53 10841.8 9326.64 10936.8 9192.88 C 10981.3 9126.95 11035.6 9072.67 11099.6 9026.14 L 9542.83 9026.14 C 9511.81 9026.14 9465.28 9026.14 9465.28 8979.61 C 9465.28 8931.14 9509.88 8931.14 9542.83 8931.14 L 11099.6 8931.14 "/>
<path transform="matrix(.00359712,0,0,-.00359712,0,51.48)" d="M 12524.4 9111.45 C 12524.4 9324.7 12499.2 9477.86 12410 9613.56 C 12349.9 9702.75 12229.7 9780.3 12074.6 9780.3 C 11624.8 9780.3 11624.8 9251.03 11624.8 9111.45 C 11624.8 8971.86 11624.8 8454.22 12074.6 8454.22 C 12524.4 8454.22 12524.4 8971.86 12524.4 9111.45 Z M 12074.6 8508.52 C 11985.4 8508.52 11867.2 8560.86 11828.4 8719.83 C 11801.2 8834.22 11801.2 8993.19 11801.2 9136.66 C 11801.2 9278.17 11801.2 9425.52 11830.3 9532.14 C 11871 9685.3 11995.1 9726.02 12074.6 9726.02 C 12179.3 9726.02 12280.1 9662.03 12315 9549.59 C 12346 9444.91 12348 9305.31 12348 9136.66 C 12348 8993.19 12348 8849.72 12322.8 8727.58 C 12284 8551.16 12152.1 8508.52 12074.6 8508.52 "/>
<path transform="matrix(.00359712,0,0,-.00359712,0,51.48)" d="M 14005.9 9927.16 C 14005.9 9935.47 14005.9 9941 13958.8 9988.09 C 13612.6 10337.1 13523.9 10860.7 13523.9 11284.5 C 13523.9 11766.6 13629.2 12248.6 13969.9 12594.8 C 14005.9 12628.1 14005.9 12633.6 14005.9 12641.9 C 14005.9 12661.3 13994.8 12669.6 13978.2 12669.6 C 13950.5 12669.6 13701.2 12481.3 13537.8 12129.5 C 13396.5 11824.7 13363.3 11517.3 13363.3 11284.5 C 13363.3 11068.5 13393.7 10733.3 13546.1 10420.3 C 13712.3 10079.5 13950.5 9899.45 13978.2 9899.45 C 13994.8 9899.45 14005.9 9907.77 14005.9 9927.16 "/>
<path transform="matrix(.00359712,0,0,-.00359712,0,51.48)" d="M 14488.1 11195.9 C 14488.1 11647.4 14715.3 11763.8 14862.1 11763.8 C 14887 11763.8 15061.5 11761 15158.5 11661.3 C 15044.9 11653 15028.3 11569.9 15028.3 11533.9 C 15028.3 11461.8 15078.2 11406.4 15155.7 11406.4 C 15227.8 11406.4 15283.2 11453.5 15283.2 11536.6 C 15283.2 11725 15072.6 11833 14859.3 11833 C 14513 11833 14258.2 11533.9 14258.2 11190.4 C 14258.2 10835.8 14532.4 10561.5 14853.8 10561.5 C 15225 10561.5 15313.6 10894 15313.6 10921.7 C 15313.6 10949.4 15285.9 10949.4 15277.6 10949.4 C 15252.7 10949.4 15247.1 10938.3 15241.6 10921.7 C 15161.3 10664 14981.2 10630.8 14878.7 10630.8 C 14731.9 10630.8 14488.1 10749.9 14488.1 11195.9 "/>
<path transform="matrix(.00359712,0,0,-.00359712,0,51.48)" d="M 16698.8 11184.8 C 16698.8 11539.4 16421.7 11833 16086.5 11833 C 15740.3 11833 15471.6 11531.1 15471.6 11184.8 C 15471.6 10827.5 15759.7 10561.5 16083.8 10561.5 C 16419 10561.5 16698.8 10833 16698.8 11184.8 Z M 16086.5 10630.8 C 15967.4 10630.8 15845.5 10689 15770.8 10816.4 C 15701.5 10938.3 15701.5 11107.3 15701.5 11207 C 15701.5 11315 15701.5 11464.6 15768 11586.5 C 15842.8 11713.9 15973 11772.1 16083.8 11772.1 C 16205.7 11772.1 16324.8 11711.2 16396.8 11592 C 16468.8 11472.9 16468.8 11312.3 16468.8 11207 C 16468.8 11107.3 16468.8 10957.7 16407.9 10835.8 C 16346.9 10711.1 16225.1 10630.8 16086.5 10630.8 "/>
<path transform="matrix(.00359712,0,0,-.00359712,0,51.48)" d="M 17354.2 11129.4 C 17415.1 11118.3 17642.3 11074 17642.3 10874.6 C 17642.3 10733.3 17545.3 10622.5 17329.3 10622.5 C 17096.6 10622.5 16996.8 10780.4 16944.2 11015.8 C 16935.9 11051.8 16933.1 11062.9 16905.4 11062.9 C 16869.4 11062.9 16869.4 11043.5 16869.4 10993.7 L 16869.4 10628 C 16869.4 10580.9 16869.4 10561.5 16899.9 10561.5 C 16913.7 10561.5 16916.5 10564.3 16969.1 10616.9 C 16974.7 10622.5 16974.7 10628 17024.5 10680.6 C 17146.4 10564.3 17271.1 10561.5 17329.3 10561.5 C 17647.8 10561.5 17775.3 10747.1 17775.3 10946.6 C 17775.3 11093.4 17692.2 11176.5 17658.9 11209.8 C 17567.5 11298.4 17459.5 11320.6 17343.1 11342.7 C 17188 11373.2 17002.4 11409.2 17002.4 11569.9 C 17002.4 11666.8 17074.4 11780.4 17312.6 11780.4 C 17617.4 11780.4 17631.2 11531.1 17636.8 11445.2 C 17639.5 11420.3 17664.5 11420.3 17670 11420.3 C 17706 11420.3 17706 11434.1 17706 11486.8 L 17706 11766.6 C 17706 11813.7 17706 11833 17675.5 11833 C 17661.7 11833 17656.2 11833 17620.1 11799.8 C 17611.8 11788.7 17584.1 11763.8 17573 11755.5 C 17467.8 11833 17354.2 11833 17312.6 11833 C 16974.7 11833 16869.4 11647.4 16869.4 11492.3 C 16869.4 11395.4 16913.7 11317.8 16988.5 11256.8 C 17077.2 11184.8 17154.8 11168.2 17354.2 11129.4 "/>
<path transform="matrix(.00359712,0,0,-.00359712,0,51.48)" d="M 19120 12301.2 C 19120 12412 19192 12589.3 19493.9 12608.7 C 19507.8 12611.5 19518.9 12622.5 19518.9 12639.2 C 19518.9 12669.6 19496.7 12669.6 19466.2 12669.6 C 19189.2 12669.6 18937.1 12528.4 18934.4 12323.4 L 18934.4 11691.8 C 18934.4 11583.7 18934.4 11495.1 18823.5 11403.7 C 18726.6 11323.3 18621.3 11317.8 18560.4 11315 C 18546.5 11312.3 18535.5 11301.2 18535.5 11284.5 C 18535.5 11256.8 18552.1 11256.8 18579.8 11254.1 C 18762.6 11243 18895.6 11143.3 18926 11007.5 C 18934.4 10977.1 18934.4 10971.5 18934.4 10871.8 L 18934.4 10323.3 C 18934.4 10206.9 18934.4 10118.3 19067.3 10013 C 19175.4 9929.92 19358.2 9899.45 19466.2 9899.45 C 19496.7 9899.45 19518.9 9899.45 19518.9 9929.92 C 19518.9 9957.63 19502.3 9957.63 19474.5 9960.39 C 19300 9971.48 19164.3 10060.1 19128.3 10201.4 C 19120 10226.3 19120 10231.9 19120 10331.6 L 19120 10913.3 C 19120 11040.8 19097.8 11087.9 19009.2 11176.5 C 18951 11234.7 18870.6 11262.4 18793.1 11284.5 C 19020.2 11348.3 19120 11475.7 19120 11636.4 L 19120 12301.2 "/>
<path transform="matrix(.00359712,0,0,-.00359712,0,51.48)" d="M 20637.9 9927.16 C 20637.9 9935.47 20637.9 9941 20590.8 9988.09 C 20244.6 10337.1 20155.9 10860.7 20155.9 11284.5 C 20155.9 11766.6 20261.2 12248.6 20601.9 12594.8 C 20637.9 12628.1 20637.9 12633.6 20637.9 12641.9 C 20637.9 12661.3 20626.8 12669.6 20610.2 12669.6 C 20582.5 12669.6 20333.2 12481.3 20169.8 12129.5 C 20028.5 11824.7 19995.3 11517.3 19995.3 11284.5 C 19995.3 11068.5 20025.7 10733.3 20178.1 10420.3 C 20344.3 10079.5 20582.5 9899.45 20610.2 9899.45 C 20626.8 9899.45 20637.9 9907.77 20637.9 9927.16 "/>
<path transform="matrix(.00359712,0,0,-.00359712,0,51.48)" d="M 21041.8 10755.4 C 21033.5 10713.9 21016.8 10650.2 21016.8 10636.3 C 21016.8 10586.5 21055.6 10561.5 21097.2 10561.5 C 21130.4 10561.5 21180.3 10583.7 21199.7 10639.1 C 21202.5 10644.6 21235.7 10774.8 21252.3 10844.1 L 21313.3 11093.4 C 21329.9 11154.3 21346.5 11215.3 21360.3 11279 C 21371.4 11326.1 21393.6 11406.4 21396.4 11417.5 C 21437.9 11503.4 21584.7 11755.5 21847.9 11755.5 C 21972.6 11755.5 21997.5 11653 21997.5 11561.6 C 21997.5 11389.8 21861.8 11035.2 21817.4 10916.1 C 21792.5 10852.4 21789.7 10819.2 21789.7 10788.7 C 21789.7 10658.5 21886.7 10561.5 22016.9 10561.5 C 22277.3 10561.5 22379.8 10966 22379.8 10988.1 C 22379.8 11015.8 22354.8 11015.8 22346.5 11015.8 C 22318.8 11015.8 22318.8 11007.5 22305 10966 C 22249.6 10777.6 22158.2 10622.5 22022.4 10622.5 C 21975.3 10622.5 21955.9 10650.2 21955.9 10713.9 C 21955.9 10783.1 21980.9 10849.6 22005.8 10910.6 C 22058.4 11057.4 22174.8 11362.1 22174.8 11520 C 22174.8 11705.6 22055.7 11816.4 21856.2 11816.4 C 21606.9 11816.4 21471.2 11639.1 21424.1 11575.4 C 21410.2 11730.5 21296.6 11816.4 21169.2 11816.4 C 21041.8 11816.4 20989.1 11708.4 20961.4 11658.5 C 20917.1 11564.3 20878.3 11400.9 20878.3 11389.8 C 20878.3 11362.1 20906 11362.1 20911.6 11362.1 C 20939.3 11362.1 20942 11364.9 20958.7 11425.8 C 21005.8 11622.5 21061.2 11755.5 21160.9 11755.5 C 21216.3 11755.5 21246.8 11719.5 21246.8 11628 C 21246.8 11569.9 21238.5 11539.4 21202.5 11395.4 L 21041.8 10755.4 "/>
<path transform="matrix(.00359712,0,0,-.00359712,0,51.48)" d="M 24209 11229.1 L 24981.9 11229.1 C 25020.7 11229.1 25073.3 11229.1 25073.3 11284.5 C 25073.3 11340 25020.7 11340 24981.9 11340 L 24209 11340 L 24209 12115.6 C 24209 12154.4 24209 12207 24153.6 12207 C 24098.2 12207 24098.2 12154.4 24098.2 12115.6 L 24098.2 11340 L 23322.5 11340 C 23283.8 11340 23231.1 11340 23231.1 11284.5 C 23231.1 11229.1 23283.8 11229.1 23322.5 11229.1 L 24098.2 11229.1 L 24098.2 10453.5 C 24098.2 10414.7 24098.2 10362.1 24153.6 10362.1 C 24209 10362.1 24209 10414.7 24209 10453.5 L 24209 11229.1 "/>
<path transform="matrix(.00359712,0,0,-.00359712,0,51.48)" d="M 26657.4 12364.9 C 26657.4 12431.4 26657.4 12436.9 26593.7 12436.9 C 26422 12259.7 26178.2 12259.7 26089.5 12259.7 L 26089.5 12173.8 C 26145 12173.8 26308.4 12173.8 26452.4 12245.8 L 26452.4 10810.8 C 26452.4 10711.1 26444.1 10677.9 26194.8 10677.9 L 26106.2 10677.9 L 26106.2 10592 C 26203.1 10600.3 26444.1 10600.3 26554.9 10600.3 C 26665.8 10600.3 26906.8 10600.3 27003.7 10592 L 27003.7 10677.9 L 26915.1 10677.9 C 26665.8 10677.9 26657.4 10708.3 26657.4 10810.8 L 26657.4 12364.9 "/>
<path transform="matrix(.00359712,0,0,-.00359712,0,51.48)" d="M 28028.6 11284.5 C 28028.6 11500.6 27998.1 11835.8 27845.8 12148.8 C 27679.5 12489.6 27441.3 12669.6 27413.6 12669.6 C 27397 12669.6 27385.9 12658.6 27385.9 12641.9 C 27385.9 12633.6 27385.9 12628.1 27438.5 12578.2 C 27710 12304 27867.9 11863.5 27867.9 11284.5 C 27867.9 10810.8 27765.4 10323.3 27421.9 9974.25 C 27385.9 9941 27385.9 9935.47 27385.9 9927.16 C 27385.9 9910.53 27397 9899.45 27413.6 9899.45 C 27441.3 9899.45 27690.6 10087.8 27854.1 10439.6 C 27995.3 10744.4 28028.6 11051.8 28028.6 11284.5 "/>
<path transform="matrix(.00359712,0,0,-.00359712,0,51.48)" d="M 29233.3 11428.6 C 29249.9 11500.6 29313.6 11755.5 29507.5 11755.5 C 29521.3 11755.5 29587.8 11755.5 29646 11719.5 C 29568.4 11705.6 29513 11636.4 29513 11569.9 C 29513 11525.5 29543.5 11472.9 29618.3 11472.9 C 29679.3 11472.9 29767.9 11522.8 29767.9 11633.6 C 29767.9 11777.6 29604.5 11816.4 29510.3 11816.4 C 29349.6 11816.4 29252.6 11669.6 29219.4 11605.9 C 29150.1 11788.7 29000.5 11816.4 28920.2 11816.4 C 28632.1 11816.4 28474.2 11459.1 28474.2 11389.8 C 28474.2 11362.1 28501.9 11362.1 28507.5 11362.1 C 28529.6 11362.1 28537.9 11367.7 28543.5 11392.6 C 28637.7 11686.2 28820.5 11755.5 28914.7 11755.5 C 28967.3 11755.5 29064.3 11730.5 29064.3 11569.9 C 29064.3 11484 29017.2 11298.4 28914.7 10910.6 C 28870.3 10738.8 28773.4 10622.5 28651.5 10622.5 C 28634.9 10622.5 28571.2 10622.5 28513 10658.5 C 28582.3 10672.3 28643.2 10730.5 28643.2 10808.1 C 28643.2 10882.9 28582.3 10905 28540.7 10905 C 28457.6 10905 28388.3 10833 28388.3 10744.4 C 28388.3 10616.9 28526.8 10561.5 28648.7 10561.5 C 28831.6 10561.5 28931.3 10755.4 28939.6 10772.1 C 28972.8 10669.6 29072.6 10561.5 29238.8 10561.5 C 29524.1 10561.5 29682 10918.9 29682 10988.1 C 29682 11015.8 29657.1 11015.8 29648.8 11015.8 C 29623.8 11015.8 29618.3 11004.8 29612.8 10985.4 C 29521.3 10689 29333 10622.5 29244.3 10622.5 C 29136.3 10622.5 29092 10711.1 29092 10805.3 C 29092 10866.3 29108.6 10927.2 29139.1 11049.1 L 29233.3 11428.6 "/>
<path transform="matrix(.00359712,0,0,-.00359712,0,51.48)" d="M 30489.4 10267.9 C 30489.4 10157.1 30417.3 9979.78 30115.4 9960.39 C 30101.5 9957.63 30090.5 9946.55 30090.5 9929.92 C 30090.5 9899.45 30120.9 9899.45 30145.9 9899.45 C 30414.6 9899.45 30672.2 10035.2 30675 10245.7 L 30675 10877.3 C 30675 10985.4 30675 11074 30785.8 11165.4 C 30882.7 11245.8 30988 11251.3 31048.9 11254.1 C 31062.8 11256.8 31073.9 11267.9 31073.9 11284.5 C 31073.9 11312.3 31057.3 11312.3 31029.5 11315 C 30846.7 11326.1 30713.8 11425.8 30683.3 11561.6 C 30675 11592 30675 11597.6 30675 11697.3 L 30675 12245.8 C 30675 12362.2 30675 12450.8 30542 12556.1 C 30431.2 12641.9 30240 12669.6 30145.9 12669.6 C 30120.9 12669.6 30090.5 12669.6 30090.5 12639.2 C 30090.5 12611.5 30107.1 12611.5 30134.8 12608.7 C 30309.3 12597.6 30445 12509 30481 12367.7 C 30489.4 12342.8 30489.4 12337.2 30489.4 12237.5 L 30489.4 11655.8 C 30489.4 11528.3 30511.5 11481.2 30600.2 11392.6 C 30658.3 11334.4 30738.7 11306.7 30816.3 11284.5 C 30589.1 11220.8 30489.4 11093.4 30489.4 10932.7 L 30489.4 10267.9 "/>
<path transform="matrix(.00359712,0,0,-.00359712,0,51.48)" d="M 33024 11229.1 L 33796.9 11229.1 C 33835.7 11229.1 33888.3 11229.1 33888.3 11284.5 C 33888.3 11340 33835.7 11340 33796.9 11340 L 33024 11340 L 33024 12115.6 C 33024 12154.4 33024 12207 32968.6 12207 C 32913.2 12207 32913.2 12154.4 32913.2 12115.6 L 32913.2 11340 L 32137.5 11340 C 32098.8 11340 32046.1 11340 32046.1 11284.5 C 32046.1 11229.1 32098.8 11229.1 32137.5 11229.1 L 32913.2 11229.1 L 32913.2 10453.5 C 32913.2 10414.7 32913.2 10362.1 32968.6 10362.1 C 33024 10362.1 33024 10414.7 33024 10453.5 L 33024 11229.1 "/>
<path transform="matrix(.00359712,0,0,-.00359712,0,51.48)" d="M 34982.1 11195.9 C 34982.1 11647.4 35209.3 11763.8 35356.1 11763.8 C 35381 11763.8 35555.5 11761 35652.5 11661.3 C 35538.9 11653 35522.3 11569.9 35522.3 11533.9 C 35522.3 11461.8 35572.2 11406.4 35649.7 11406.4 C 35721.8 11406.4 35777.2 11453.5 35777.2 11536.6 C 35777.2 11725 35566.6 11833 35353.3 11833 C 35007 11833 34752.2 11533.9 34752.2 11190.4 C 34752.2 10835.8 35026.4 10561.5 35347.8 10561.5 C 35719 10561.5 35807.6 10894 35807.6 10921.7 C 35807.6 10949.4 35779.9 10949.4 35771.6 10949.4 C 35746.7 10949.4 35741.1 10938.3 35735.6 10921.7 C 35655.3 10664 35475.2 10630.8 35372.7 10630.8 C 35225.9 10630.8 34982.1 10749.9 34982.1 11195.9 "/>
<path transform="matrix(.00359712,0,0,-.00359712,0,51.48)" d="M 37191.8 11184.8 C 37191.8 11539.4 36914.7 11833 36579.5 11833 C 36233.3 11833 35964.6 11531.1 35964.6 11184.8 C 35964.6 10827.5 36252.7 10561.5 36576.8 10561.5 C 36912 10561.5 37191.8 10833 37191.8 11184.8 Z M 36579.5 10630.8 C 36460.4 10630.8 36338.5 10689 36263.8 10816.4 C 36194.5 10938.3 36194.5 11107.3 36194.5 11207 C 36194.5 11315 36194.5 11464.6 36261 11586.5 C 36335.8 11713.9 36466 11772.1 36576.8 11772.1 C 36698.7 11772.1 36817.8 11711.2 36889.8 11592 C 36961.8 11472.9 36961.8 11312.3 36961.8 11207 C 36961.8 11107.3 36961.8 10957.7 36900.9 10835.8 C 36839.9 10711.1 36718.1 10630.8 36579.5 10630.8 "/>
<path transform="matrix(.00359712,0,0,-.00359712,0,51.48)" d="M 37848.2 11129.4 C 37909.1 11118.3 38136.3 11074 38136.3 10874.6 C 38136.3 10733.3 38039.3 10622.5 37823.3 10622.5 C 37590.6 10622.5 37490.8 10780.4 37438.2 11015.8 C 37429.9 11051.8 37427.1 11062.9 37399.4 11062.9 C 37363.4 11062.9 37363.4 11043.5 37363.4 10993.7 L 37363.4 10628 C 37363.4 10580.9 37363.4 10561.5 37393.9 10561.5 C 37407.7 10561.5 37410.5 10564.3 37463.1 10616.9 C 37468.7 10622.5 37468.7 10628 37518.5 10680.6 C 37640.4 10564.3 37765.1 10561.5 37823.3 10561.5 C 38141.8 10561.5 38269.3 10747.1 38269.3 10946.6 C 38269.3 11093.4 38186.2 11176.5 38152.9 11209.8 C 38061.5 11298.4 37953.5 11320.6 37837.1 11342.7 C 37682 11373.2 37496.4 11409.2 37496.4 11569.9 C 37496.4 11666.8 37568.4 11780.4 37806.6 11780.4 C 38111.4 11780.4 38125.2 11531.1 38130.8 11445.2 C 38133.5 11420.3 38158.5 11420.3 38164 11420.3 C 38200 11420.3 38200 11434.1 38200 11486.8 L 38200 11766.6 C 38200 11813.7 38200 11833 38169.5 11833 C 38155.7 11833 38150.2 11833 38114.1 11799.8 C 38105.8 11788.7 38078.1 11763.8 38067 11755.5 C 37961.8 11833 37848.2 11833 37806.6 11833 C 37468.7 11833 37363.4 11647.4 37363.4 11492.3 C 37363.4 11395.4 37407.7 11317.8 37482.5 11256.8 C 37571.2 11184.8 37648.8 11168.2 37848.2 11129.4 "/>
<path transform="matrix(.00359712,0,0,-.00359712,0,51.48)" d="M 39073.8 10755.4 C 39065.5 10713.9 39048.8 10650.2 39048.8 10636.3 C 39048.8 10586.5 39087.6 10561.5 39129.2 10561.5 C 39162.4 10561.5 39212.3 10583.7 39231.7 10639.1 C 39234.5 10644.6 39267.7 10774.8 39284.3 10844.1 L 39345.3 11093.4 C 39361.9 11154.3 39378.5 11215.3 39392.3 11279 C 39403.4 11326.1 39425.6 11406.4 39428.4 11417.5 C 39469.9 11503.4 39616.7 11755.5 39879.9 11755.5 C 40004.6 11755.5 40029.5 11653 40029.5 11561.6 C 40029.5 11389.8 39893.8 11035.2 39849.4 10916.1 C 39824.5 10852.4 39821.7 10819.2 39821.7 10788.7 C 39821.7 10658.5 39918.7 10561.5 40048.9 10561.5 C 40309.3 10561.5 40411.8 10966 40411.8 10988.1 C 40411.8 11015.8 40386.8 11015.8 40378.5 11015.8 C 40350.8 11015.8 40350.8 11007.5 40337 10966 C 40281.6 10777.6 40190.2 10622.5 40054.4 10622.5 C 40007.3 10622.5 39987.9 10650.2 39987.9 10713.9 C 39987.9 10783.1 40012.9 10849.6 40037.8 10910.6 C 40090.4 11057.4 40206.8 11362.1 40206.8 11520 C 40206.8 11705.6 40087.7 11816.4 39888.2 11816.4 C 39638.9 11816.4 39503.2 11639.1 39456.1 11575.4 C 39442.2 11730.5 39328.6 11816.4 39201.2 11816.4 C 39073.8 11816.4 39021.1 11708.4 38993.4 11658.5 C 38949.1 11564.3 38910.3 11400.9 38910.3 11389.8 C 38910.3 11362.1 38938 11362.1 38943.6 11362.1 C 38971.3 11362.1 38974 11364.9 38990.7 11425.8 C 39037.8 11622.5 39093.2 11755.5 39192.9 11755.5 C 39248.3 11755.5 39278.8 11719.5 39278.8 11628 C 39278.8 11569.9 39270.5 11539.4 39234.5 11395.4 L 39073.8 10755.4 "/>
<path transform="matrix(.00359712,0,0,-.00359712,0,51.48)" d="M 41417.3 11428.6 C 41433.9 11500.6 41497.6 11755.5 41691.5 11755.5 C 41705.3 11755.5 41771.8 11755.5 41830 11719.5 C 41752.4 11705.6 41697 11636.4 41697 11569.9 C 41697 11525.5 41727.5 11472.9 41802.3 11472.9 C 41863.3 11472.9 41951.9 11522.8 41951.9 11633.6 C 41951.9 11777.6 41788.5 11816.4 41694.3 11816.4 C 41533.6 11816.4 41436.6 11669.6 41403.4 11605.9 C 41334.1 11788.7 41184.5 11816.4 41104.2 11816.4 C 40816.1 11816.4 40658.2 11459.1 40658.2 11389.8 C 40658.2 11362.1 40685.9 11362.1 40691.5 11362.1 C 40713.6 11362.1 40721.9 11367.7 40727.5 11392.6 C 40821.7 11686.2 41004.5 11755.5 41098.7 11755.5 C 41151.3 11755.5 41248.3 11730.5 41248.3 11569.9 C 41248.3 11484 41201.2 11298.4 41098.7 10910.6 C 41054.3 10738.8 40957.4 10622.5 40835.5 10622.5 C 40818.9 10622.5 40755.2 10622.5 40697 10658.5 C 40766.3 10672.3 40827.2 10730.5 40827.2 10808.1 C 40827.2 10882.9 40766.3 10905 40724.7 10905 C 40641.6 10905 40572.3 10833 40572.3 10744.4 C 40572.3 10616.9 40710.8 10561.5 40832.7 10561.5 C 41015.6 10561.5 41115.3 10755.4 41123.6 10772.1 C 41156.8 10669.6 41256.6 10561.5 41422.8 10561.5 C 41708.1 10561.5 41866 10918.9 41866 10988.1 C 41866 11015.8 41841.1 11015.8 41832.8 11015.8 C 41807.8 11015.8 41802.3 11004.8 41796.8 10985.4 C 41705.3 10689 41517 10622.5 41428.3 10622.5 C 41320.3 10622.5 41276 10711.1 41276 10805.3 C 41276 10866.3 41292.6 10927.2 41323.1 11049.1 L 41417.3 11428.6 "/>
<path transform="matrix(.00359712,0,0,-.00359712,0,51.48)" d="M 44516.5 11229.1 C 44563.6 11229.1 44613.5 11229.1 44613.5 11284.5 C 44613.5 11340 44563.6 11340 44516.5 11340 L 43017.9 11340 C 42970.8 11340 42920.9 11340 42920.9 11284.5 C 42920.9 11229.1 42970.8 11229.1 43017.9 11229.1 L 44516.5 11229.1 "/>
<path transform="matrix(.00359712,0,0,-.00359712,0,51.48)" d="M 45785.1 11195.9 C 45785.1 11647.4 46012.3 11763.8 46159.1 11763.8 C 46184 11763.8 46358.5 11761 46455.5 11661.3 C 46341.9 11653 46325.3 11569.9 46325.3 11533.9 C 46325.3 11461.8 46375.2 11406.4 46452.7 11406.4 C 46524.8 11406.4 46580.2 11453.5 46580.2 11536.6 C 46580.2 11725 46369.6 11833 46156.3 11833 C 45810 11833 45555.2 11533.9 45555.2 11190.4 C 45555.2 10835.8 45829.4 10561.5 46150.8 10561.5 C 46522 10561.5 46610.6 10894 46610.6 10921.7 C 46610.6 10949.4 46582.9 10949.4 46574.6 10949.4 C 46549.7 10949.4 46544.1 10938.3 46538.6 10921.7 C 46458.3 10664 46278.2 10630.8 46175.7 10630.8 C 46028.9 10630.8 45785.1 10749.9 45785.1 11195.9 "/>
<path transform="matrix(.00359712,0,0,-.00359712,0,51.48)" d="M 47994.8 11184.8 C 47994.8 11539.4 47717.7 11833 47382.5 11833 C 47036.3 11833 46767.6 11531.1 46767.6 11184.8 C 46767.6 10827.5 47055.7 10561.5 47379.8 10561.5 C 47715 10561.5 47994.8 10833 47994.8 11184.8 Z M 47382.5 10630.8 C 47263.4 10630.8 47141.5 10689 47066.8 10816.4 C 46997.5 10938.3 46997.5 11107.3 46997.5 11207 C 46997.5 11315 46997.5 11464.6 47064 11586.5 C 47138.8 11713.9 47269 11772.1 47379.8 11772.1 C 47501.7 11772.1 47620.8 11711.2 47692.8 11592 C 47764.8 11472.9 47764.8 11312.3 47764.8 11207 C 47764.8 11107.3 47764.8 10957.7 47703.9 10835.8 C 47642.9 10711.1 47521.1 10630.8 47382.5 10630.8 "/>
<path transform="matrix(.00359712,0,0,-.00359712,0,51.48)" d="M 48651.2 11129.4 C 48712.1 11118.3 48939.3 11074 48939.3 10874.6 C 48939.3 10733.3 48842.3 10622.5 48626.3 10622.5 C 48393.6 10622.5 48293.8 10780.4 48241.2 11015.8 C 48232.9 11051.8 48230.1 11062.9 48202.4 11062.9 C 48166.4 11062.9 48166.4 11043.5 48166.4 10993.7 L 48166.4 10628 C 48166.4 10580.9 48166.4 10561.5 48196.9 10561.5 C 48210.7 10561.5 48213.5 10564.3 48266.1 10616.9 C 48271.7 10622.5 48271.7 10628 48321.5 10680.6 C 48443.4 10564.3 48568.1 10561.5 48626.3 10561.5 C 48944.8 10561.5 49072.3 10747.1 49072.3 10946.6 C 49072.3 11093.4 48989.2 11176.5 48955.9 11209.8 C 48864.5 11298.4 48756.5 11320.6 48640.1 11342.7 C 48485 11373.2 48299.4 11409.2 48299.4 11569.9 C 48299.4 11666.8 48371.4 11780.4 48609.6 11780.4 C 48914.4 11780.4 48928.2 11531.1 48933.8 11445.2 C 48936.5 11420.3 48961.5 11420.3 48967 11420.3 C 49003 11420.3 49003 11434.1 49003 11486.8 L 49003 11766.6 C 49003 11813.7 49003 11833 48972.5 11833 C 48958.7 11833 48953.2 11833 48917.1 11799.8 C 48908.8 11788.7 48881.1 11763.8 48870 11755.5 C 48764.8 11833 48651.2 11833 48609.6 11833 C 48271.7 11833 48166.4 11647.4 48166.4 11492.3 C 48166.4 11395.4 48210.7 11317.8 48285.5 11256.8 C 48374.2 11184.8 48451.8 11168.2 48651.2 11129.4 "/>
<path transform="matrix(.00359712,0,0,-.00359712,0,51.48)" d="M 50900.3 11478.5 C 50900.3 11700.1 50886.4 11921.7 50789.5 12126.7 C 50662 12392.6 50434.9 12436.9 50318.5 12436.9 C 50152.3 12436.9 49950.1 12364.9 49836.5 12107.3 C 49747.9 11916.2 49734 11700.1 49734 11478.5 C 49734 11270.7 49745.1 11021.4 49858.7 10810.8 C 49977.8 10586.5 50180 10531.1 50315.8 10531.1 C 50465.4 10531.1 50675.9 10589.2 50797.8 10852.4 C 50886.4 11043.5 50900.3 11259.6 50900.3 11478.5 Z M 50315.8 10592 C 50207.7 10592 50044.3 10661.3 49994.4 10927.2 C 49964 11093.4 49964 11348.3 49964 11511.7 C 49964 11689 49964 11871.8 49986.1 12021.4 C 50038.8 12351.1 50246.5 12376 50315.8 12376 C 50407.2 12376 50590 12326.1 50642.7 12051.9 C 50670.4 11896.8 50670.4 11686.2 50670.4 11511.7 C 50670.4 11303.9 50670.4 11115.6 50639.9 10938.3 C 50598.3 10675.1 50440.4 10592 50315.8 10592 "/>
<path transform="matrix(.00359712,0,0,-.00359712,0,51.48)" d="M 53456.5 11229.1 C 53503.6 11229.1 53553.5 11229.1 53553.5 11284.5 C 53553.5 11340 53503.6 11340 53456.5 11340 L 51957.9 11340 C 51910.8 11340 51860.9 11340 51860.9 11284.5 C 51860.9 11229.1 51910.8 11229.1 51957.9 11229.1 L 53456.5 11229.1 "/>
<path transform="matrix(.00359712,0,0,-.00359712,0,51.48)" d="M 54724.1 11195.9 C 54724.1 11647.4 54951.3 11763.8 55098.1 11763.8 C 55123 11763.8 55297.5 11761 55394.5 11661.3 C 55280.9 11653 55264.3 11569.9 55264.3 11533.9 C 55264.3 11461.8 55314.2 11406.4 55391.7 11406.4 C 55463.8 11406.4 55519.2 11453.5 55519.2 11536.6 C 55519.2 11725 55308.6 11833 55095.3 11833 C 54749 11833 54494.2 11533.9 54494.2 11190.4 C 54494.2 10835.8 54768.4 10561.5 55089.8 10561.5 C 55461 10561.5 55549.6 10894 55549.6 10921.7 C 55549.6 10949.4 55521.9 10949.4 55513.6 10949.4 C 55488.7 10949.4 55483.1 10938.3 55477.6 10921.7 C 55397.3 10664 55217.2 10630.8 55114.7 10630.8 C 54967.9 10630.8 54724.1 10749.9 54724.1 11195.9 "/>
<path transform="matrix(.00359712,0,0,-.00359712,0,51.48)" d="M 56934.8 11184.8 C 56934.8 11539.4 56657.7 11833 56322.5 11833 C 55976.3 11833 55707.6 11531.1 55707.6 11184.8 C 55707.6 10827.5 55995.7 10561.5 56319.8 10561.5 C 56655 10561.5 56934.8 10833 56934.8 11184.8 Z M 56322.5 10630.8 C 56203.4 10630.8 56081.5 10689 56006.8 10816.4 C 55937.5 10938.3 55937.5 11107.3 55937.5 11207 C 55937.5 11315 55937.5 11464.6 56004 11586.5 C 56078.8 11713.9 56209 11772.1 56319.8 11772.1 C 56441.7 11772.1 56560.8 11711.2 56632.8 11592 C 56704.8 11472.9 56704.8 11312.3 56704.8 11207 C 56704.8 11107.3 56704.8 10957.7 56643.9 10835.8 C 56582.9 10711.1 56461.1 10630.8 56322.5 10630.8 "/>
<path transform="matrix(.00359712,0,0,-.00359712,0,51.48)" d="M 57591.2 11129.4 C 57652.1 11118.3 57879.3 11074 57879.3 10874.6 C 57879.3 10733.3 57782.3 10622.5 57566.3 10622.5 C 57333.6 10622.5 57233.8 10780.4 57181.2 11015.8 C 57172.9 11051.8 57170.1 11062.9 57142.4 11062.9 C 57106.4 11062.9 57106.4 11043.5 57106.4 10993.7 L 57106.4 10628 C 57106.4 10580.9 57106.4 10561.5 57136.9 10561.5 C 57150.7 10561.5 57153.5 10564.3 57206.1 10616.9 C 57211.7 10622.5 57211.7 10628 57261.5 10680.6 C 57383.4 10564.3 57508.1 10561.5 57566.3 10561.5 C 57884.8 10561.5 58012.3 10747.1 58012.3 10946.6 C 58012.3 11093.4 57929.2 11176.5 57895.9 11209.8 C 57804.5 11298.4 57696.5 11320.6 57580.1 11342.7 C 57425 11373.2 57239.4 11409.2 57239.4 11569.9 C 57239.4 11666.8 57311.4 11780.4 57549.6 11780.4 C 57854.4 11780.4 57868.2 11531.1 57873.8 11445.2 C 57876.5 11420.3 57901.5 11420.3 57907 11420.3 C 57943 11420.3 57943 11434.1 57943 11486.8 L 57943 11766.6 C 57943 11813.7 57943 11833 57912.5 11833 C 57898.7 11833 57893.2 11833 57857.1 11799.8 C 57848.8 11788.7 57821.1 11763.8 57810 11755.5 C 57704.8 11833 57591.2 11833 57549.6 11833 C 57211.7 11833 57106.4 11647.4 57106.4 11492.3 C 57106.4 11395.4 57150.7 11317.8 57225.5 11256.8 C 57314.2 11184.8 57391.8 11168.2 57591.2 11129.4 "/>
<path transform="matrix(.00359712,0,0,-.00359712,0,51.48)" d="M 59495.3 11428.6 C 59511.9 11500.6 59575.6 11755.5 59769.5 11755.5 C 59783.3 11755.5 59849.8 11755.5 59908 11719.5 C 59830.4 11705.6 59775 11636.4 59775 11569.9 C 59775 11525.5 59805.5 11472.9 59880.3 11472.9 C 59941.3 11472.9 60029.9 11522.8 60029.9 11633.6 C 60029.9 11777.6 59866.5 11816.4 59772.3 11816.4 C 59611.6 11816.4 59514.6 11669.6 59481.4 11605.9 C 59412.1 11788.7 59262.5 11816.4 59182.2 11816.4 C 58894.1 11816.4 58736.2 11459.1 58736.2 11389.8 C 58736.2 11362.1 58763.9 11362.1 58769.5 11362.1 C 58791.6 11362.1 58799.9 11367.7 58805.5 11392.6 C 58899.7 11686.2 59082.5 11755.5 59176.7 11755.5 C 59229.3 11755.5 59326.3 11730.5 59326.3 11569.9 C 59326.3 11484 59279.2 11298.4 59176.7 10910.6 C 59132.3 10738.8 59035.4 10622.5 58913.5 10622.5 C 58896.9 10622.5 58833.2 10622.5 58775 10658.5 C 58844.3 10672.3 58905.2 10730.5 58905.2 10808.1 C 58905.2 10882.9 58844.3 10905 58802.7 10905 C 58719.6 10905 58650.3 10833 58650.3 10744.4 C 58650.3 10616.9 58788.8 10561.5 58910.7 10561.5 C 59093.6 10561.5 59193.3 10755.4 59201.6 10772.1 C 59234.8 10669.6 59334.6 10561.5 59500.8 10561.5 C 59786.1 10561.5 59944 10918.9 59944 10988.1 C 59944 11015.8 59919.1 11015.8 59910.8 11015.8 C 59885.8 11015.8 59880.3 11004.8 59874.8 10985.4 C 59783.3 10689 59595 10622.5 59506.3 10622.5 C 59398.3 10622.5 59354 10711.1 59354 10805.3 C 59354 10866.3 59370.6 10927.2 59401.1 11049.1 L 59495.3 11428.6 "/>
<path transform="matrix(.00359712,0,0,-.00359712,0,51.48)" d="M 60953.6 11284.5 C 60953.6 11500.6 60923.1 11835.8 60770.8 12148.8 C 60604.5 12489.6 60366.3 12669.6 60338.6 12669.6 C 60322 12669.6 60310.9 12658.6 60310.9 12641.9 C 60310.9 12633.6 60310.9 12628.1 60363.5 12578.2 C 60635 12304 60792.9 11863.5 60792.9 11284.5 C 60792.9 10810.8 60690.4 10323.3 60346.9 9974.25 C 60310.9 9941 60310.9 9935.47 60310.9 9927.16 C 60310.9 9910.53 60322 9899.45 60338.6 9899.45 C 60366.3 9899.45 60615.6 10087.8 60779.1 10439.6 C 60920.3 10744.4 60953.6 11051.8 60953.6 11284.5 "/>
<path transform="matrix(.00359712,0,0,-.00359712,0,51.48)" d="M 1746.13 3688.84 C 1787.67 3688.84 1840.31 3688.84 1840.31 3744.25 C 1840.31 3799.66 1787.67 3799.66 1748.89 3799.66 L 89.5469 3799.66 C 50.7656 3799.66 -1.875 3799.66 -1.875 3744.25 C -1.875 3688.84 50.7656 3688.84 92.3125 3688.84 L 1746.13 3688.84 Z M 1748.89 3151.44 C 1787.67 3151.44 1840.31 3151.44 1840.31 3206.84 C 1840.31 3262.25 1787.67 3262.25 1746.13 3262.25 L 92.3125 3262.25 C 50.7656 3262.25 -1.875 3262.25 -1.875 3206.84 C -1.875 3151.44 50.7656 3151.44 89.5469 3151.44 L 1748.89 3151.44 "/>
<path transform="matrix(.00359712,0,0,-.00359712,0,51.48)" d="M 4591.55 3420.14 C 4638.64 3420.14 4688.52 3420.14 4688.52 3475.55 C 4688.52 3530.95 4638.64 3530.95 4591.55 3530.95 L 3092.88 3530.95 C 3045.78 3530.95 2995.92 3530.95 2995.92 3475.55 C 2995.92 3420.14 3045.78 3420.14 3092.88 3420.14 L 4591.55 3420.14 "/>
<path transform="matrix(.00359712,0,0,-.00359712,0,51.48)" d="M 6067.44 6429.92 C 6067.44 6496.41 6067.44 6501.94 6003.72 6501.94 C 5831.97 6324.66 5588.19 6324.66 5499.55 6324.66 L 5499.55 6238.78 C 5554.95 6238.78 5718.39 6238.78 5862.44 6310.8 L 5862.44 4875.84 C 5862.44 4776.13 5854.13 4742.88 5604.81 4742.88 L 5516.17 4742.88 L 5516.17 4657 C 5613.13 4665.31 5854.13 4665.31 5964.94 4665.31 C 6075.75 4665.31 6316.75 4665.31 6413.7 4657 L 6413.7 4742.88 L 6325.06 4742.88 C 6075.75 4742.88 6067.44 4773.34 6067.44 4875.84 L 6067.44 6429.92 "/>
<path transform="matrix(.00359712,0,0,-.00359712,0,51.48)" stroke-width="110.783" stroke-linecap="butt" stroke-miterlimit="10" stroke-linejoin="miter" fill="none" stroke="#000000" d="M 5252.53 3475.29 L 6637.53 3475.29 "/>
<path transform="matrix(.00359712,0,0,-.00359712,0,51.48)" d="M 5604.81 1096.3 L 5898.45 1381.64 C 6330.61 1763.92 6496.81 1913.52 6496.81 2190.53 C 6496.81 2506.33 6247.5 2727.94 5909.53 2727.94 C 5596.5 2727.94 5391.52 2473.09 5391.52 2226.55 C 5391.52 2071.41 5530.02 2071.41 5538.33 2071.41 C 5585.42 2071.41 5682.38 2104.66 5682.38 2218.23 C 5682.38 2290.25 5632.52 2362.28 5535.56 2362.28 C 5513.39 2362.28 5507.86 2362.28 5499.55 2359.52 C 5563.27 2539.58 5712.84 2642.06 5873.52 2642.06 C 6125.61 2642.06 6244.73 2417.69 6244.73 2190.53 C 6244.73 1968.91 6106.22 1750.06 5953.86 1578.31 L 5421.98 985.5 C 5391.52 955.031 5391.52 949.484 5391.52 883 L 6419.25 883 L 6496.81 1365.02 L 6427.56 1365.02 C 6413.7 1281.91 6394.31 1160.02 6366.61 1118.47 C 6347.22 1096.3 6164.39 1096.3 6103.45 1096.3 L 5604.81 1096.3 "/>
<path transform="matrix(.00359712,0,0,-.00359712,0,51.48)" d="M 8596.33 4705.52 L 8197.42 4675.03 L 8197.42 4589.16 C 8391.33 4589.16 8413.48 4569.77 8413.48 4434.03 L 8413.48 2993.53 C 8413.48 2868.88 8383.02 2868.88 8197.42 2868.88 L 8197.42 2783 C 8288.83 2785.77 8435.66 2791.31 8504.91 2791.31 C 8574.16 2791.31 8709.91 2785.77 8812.39 2783 L 8812.39 2868.88 C 8626.8 2868.88 8596.33 2868.88 8596.33 2993.53 L 8596.33 4705.52 "/>
<path transform="matrix(.00359712,0,0,-.00359712,0,51.48)" d="M 9363.33 4007.42 L 8975.5 3976.95 L 8975.5 3891.08 C 9155.56 3891.08 9180.48 3874.45 9180.48 3738.72 L 9180.48 2993.53 C 9180.48 2868.88 9150.02 2868.88 8964.42 2868.88 L 8964.42 2783 C 9053.06 2785.77 9202.66 2791.31 9269.14 2791.31 C 9366.09 2791.31 9463.05 2785.77 9557.23 2783 L 9557.23 2868.88 C 9374.41 2868.88 9363.33 2882.73 9363.33 2990.77 L 9363.33 4007.42 Z M 9374.41 4489.44 C 9374.41 4578.08 9305.16 4636.25 9227.58 4636.25 C 9141.7 4636.25 9080.77 4561.45 9080.77 4489.44 C 9080.77 4414.64 9141.7 4342.61 9227.58 4342.61 C 9305.16 4342.61 9374.41 4400.8 9374.41 4489.44 "/>
<path transform="matrix(.00359712,0,0,-.00359712,0,51.48)" d="M 9945.72 3735.94 L 9945.72 2993.53 C 9945.72 2868.88 9915.25 2868.88 9729.64 2868.88 L 9729.64 2783 C 9826.61 2785.77 9967.88 2791.31 10042.7 2791.31 C 10114.7 2791.31 10258.8 2785.77 10352.9 2783 L 10352.9 2868.88 C 10167.3 2868.88 10136.9 2868.88 10136.9 2993.53 L 10136.9 3503.25 C 10136.9 3791.34 10333.5 3946.48 10510.8 3946.48 C 10685.4 3946.48 10715.8 3796.89 10715.8 3638.98 L 10715.8 2993.53 C 10715.8 2868.88 10685.4 2868.88 10499.8 2868.88 L 10499.8 2783 C 10596.7 2785.77 10738 2791.31 10812.8 2791.31 C 10884.8 2791.31 11028.9 2785.77 11123 2783 L 11123 2868.88 C 10937.5 2868.88 10907 2868.88 10907 2993.53 L 10907 3503.25 C 10907 3791.34 11103.7 3946.48 11281 3946.48 C 11455.5 3946.48 11485.9 3796.89 11485.9 3638.98 L 11485.9 2993.53 C 11485.9 2868.88 11455.5 2868.88 11269.9 2868.88 L 11269.9 2783 C 11366.8 2785.77 11508.1 2791.31 11582.9 2791.31 C 11654.9 2791.31 11799 2785.77 11893.2 2783 L 11893.2 2868.88 C 11749.1 2868.88 11679.9 2868.88 11677.1 2951.98 L 11677.1 3481.09 C 11677.1 3719.33 11677.1 3805.2 11591.2 3904.92 C 11552.4 3952.02 11461 4007.42 11300.3 4007.42 C 11067.6 4007.42 10945.8 3841.22 10898.7 3735.94 C 10859.9 3976.95 10654.9 4007.42 10530.2 4007.42 C 10328 4007.42 10197.8 3888.31 10120.3 3716.55 L 10120.3 4007.42 L 9729.64 3976.95 L 9729.64 3891.08 C 9923.56 3891.08 9945.72 3871.69 9945.72 3735.94 "/>
<path transform="matrix(.00359712,0,0,-.00359712,0,51.48)" d="M 8452.41 2308.55 C 8452.41 2350.03 8448.27 2350.03 8402.63 2350.03 C 8304.44 2261.53 8150.92 2261.53 8123.27 2261.53 L 8099.77 2261.53 L 8099.77 2200.69 L 8123.27 2200.69 C 8155.08 2200.69 8244.97 2204.83 8325.17 2239.41 L 8325.17 1547.94 C 8325.17 1505.06 8325.17 1489.84 8178.59 1489.84 L 8109.44 1489.84 L 8109.44 1429 C 8185.5 1434.53 8308.58 1434.53 8388.8 1434.53 C 8469 1434.53 8592.09 1434.53 8668.16 1429 L 8668.16 1489.84 L 8599 1489.84 C 8452.41 1489.84 8452.41 1505.06 8452.41 1547.94 L 8452.41 2308.55 "/>
<path transform="matrix(.00359712,0,0,-.00359712,0,51.48)" stroke-width="94.1586" stroke-linecap="butt" stroke-miterlimit="10" stroke-linejoin="miter" fill="none" stroke="#000000" d="M 7763.71 1169.28 L 8983.57 1169.28 "/>
<path transform="matrix(.00359712,0,0,-.00359712,0,51.48)" d="M 8033.67 152.531 C 8025.38 117.953 8010.16 57.1094 8010.16 50.1875 C 8010.16 19.7656 8035.06 1.78125 8061.33 1.78125 C 8082.08 1.78125 8112.5 12.8438 8127.72 47.4219 C 8129.09 54.3438 8145.69 119.344 8153.98 155.297 C 8201.02 341.984 8201.02 344.75 8203.78 350.281 C 8221.75 387.625 8321.33 581.234 8490.05 581.234 C 8557.81 581.234 8586.84 543.906 8586.84 481.672 C 8586.84 402.844 8528.77 260.391 8496.95 181.563 C 8490.05 164.969 8483.13 147 8483.13 123.484 C 8483.13 51.5781 8552.28 1.78125 8633.88 1.78125 C 8781.84 1.78125 8857.91 181.563 8857.91 216.141 C 8857.91 235.5 8834.39 235.5 8828.86 235.5 C 8805.36 235.5 8803.97 229.969 8795.67 203.703 C 8769.39 120.719 8705.78 48.8125 8639.41 48.8125 C 8607.59 48.8125 8597.91 70.9375 8597.91 101.359 C 8597.91 130.406 8603.44 144.234 8615.89 174.656 C 8639.41 229.969 8703.02 387.625 8703.02 463.688 C 8703.02 566.031 8629.72 628.266 8498.34 628.266 C 8372.5 628.266 8285.38 552.203 8236.97 491.344 C 8230.05 604.75 8119.42 628.266 8068.25 628.266 C 7929.95 628.266 7889.84 416.672 7889.84 413.906 C 7889.84 394.547 7911.97 394.547 7918.89 394.547 C 7942.41 394.547 7945.17 402.844 7950.7 420.813 C 7971.44 501.031 8003.25 581.234 8061.33 581.234 C 8108.36 581.234 8118.03 536.984 8118.03 507.938 C 8118.03 488.578 8104.2 436.031 8095.91 400.078 C 8086.22 362.734 8072.39 306.031 8065.48 275.609 L 8033.67 152.531 "/>
<path transform="matrix(.00359712,0,0,-.00359712,0,51.48)" d="M 11099.6 1122.14 C 10855.3 943.781 10822.4 689.813 10822.4 687.875 C 10822.4 658.797 10841.8 658.797 10868.9 658.797 C 10903.8 658.797 10909.6 658.797 10919.3 691.75 C 10930.9 740.219 10962 864.297 11062.8 970.922 C 11175.2 1089.19 11272.2 1118.27 11353.6 1143.47 C 11365.2 1147.34 11373 1158.98 11373 1168.67 C 11373 1188.06 11361.3 1191.94 11336.1 1199.69 C 11057 1288.88 10958.1 1486.63 10917.4 1657.23 C 10909.6 1680.48 10896 1680.48 10868.9 1680.48 C 10841.8 1680.48 10822.4 1680.48 10822.4 1651.41 C 10822.4 1647.53 10841.8 1517.64 10936.8 1383.88 C 10981.3 1317.95 11035.6 1263.67 11099.6 1217.14 L 9542.83 1217.14 C 9511.81 1217.14 9465.28 1217.14 9465.28 1170.61 C 9465.28 1122.14 9509.88 1122.14 9542.83 1122.14 L 11099.6 1122.14 "/>
<path transform="matrix(.00359712,0,0,-.00359712,0,51.48)" d="M 12524.4 1302.45 C 12524.4 1515.7 12499.2 1668.86 12410 1804.56 C 12349.9 1893.75 12229.7 1971.3 12074.6 1971.3 C 11624.8 1971.3 11624.8 1442.03 11624.8 1302.45 C 11624.8 1162.86 11624.8 645.219 12074.6 645.219 C 12524.4 645.219 12524.4 1162.86 12524.4 1302.45 Z M 12074.6 699.516 C 11985.4 699.516 11867.2 751.859 11828.4 910.828 C 11801.2 1025.22 11801.2 1184.19 11801.2 1327.66 C 11801.2 1469.17 11801.2 1616.52 11830.3 1723.14 C 11871 1876.3 11995.1 1917.02 12074.6 1917.02 C 12179.3 1917.02 12280.1 1853.03 12315 1740.59 C 12346 1635.91 12348 1496.31 12348 1327.66 C 12348 1184.19 12348 1040.72 12322.8 918.578 C 12284 742.156 12152.1 699.516 12074.6 699.516 "/>
<path transform="matrix(.00359712,0,0,-.00359712,0,51.48)" d="M 14515.6 1014.72 C 14521.2 1011.94 14546.1 984.234 14548.9 984.234 L 14609.8 984.234 C 14618.1 984.234 14640.3 987.016 14640.3 1011.94 C 14640.3 1023.02 14634.8 1028.56 14629.2 1036.88 C 14529.5 1136.59 14379.9 1288.95 14208.2 1593.69 C 13909 2125.56 13798.2 2809.8 13798.2 3474.64 C 13798.2 4704.61 14147.2 5427.63 14632 5917.94 C 14640.3 5926.25 14640.3 5934.56 14640.3 5940.11 C 14640.3 5967.81 14620.9 5967.81 14587.7 5967.81 C 14551.7 5967.81 14546.1 5967.81 14521.2 5945.64 C 14258 5718.48 13961.6 5333.44 13770.5 4748.92 C 13651.3 4383.27 13587.6 3937.27 13587.6 3477.41 C 13587.6 2820.88 13706.8 2078.47 14141.7 1435.78 C 14216.5 1327.75 14319 1214.17 14319 1211.39 C 14346.7 1178.16 14385.5 1133.83 14407.6 1114.44 L 14515.6 1014.72 "/>
<path transform="matrix(.00359712,0,0,-.00359712,0,51.48)" d="M 15067.1 3386.91 C 15067.1 3838.44 15294.3 3954.8 15441.1 3954.8 C 15466 3954.8 15640.5 3952.02 15737.5 3852.3 C 15623.9 3843.98 15607.3 3760.88 15607.3 3724.86 C 15607.3 3652.84 15657.2 3597.44 15734.7 3597.44 C 15806.8 3597.44 15862.2 3644.53 15862.2 3727.64 C 15862.2 3916 15651.6 4024.05 15438.3 4024.05 C 15092 4024.05 14837.2 3724.86 14837.2 3381.36 C 14837.2 3026.78 15111.4 2752.53 15432.8 2752.53 C 15804 2752.53 15892.6 3084.95 15892.6 3112.66 C 15892.6 3140.36 15864.9 3140.36 15856.6 3140.36 C 15831.7 3140.36 15826.1 3129.28 15820.6 3112.66 C 15740.3 2855.03 15560.2 2821.78 15457.7 2821.78 C 15310.9 2821.78 15067.1 2940.91 15067.1 3386.91 "/>
<path transform="matrix(.00359712,0,0,-.00359712,0,51.48)" d="M 17277.8 3375.81 C 17277.8 3730.41 17000.7 4024.05 16665.5 4024.05 C 16319.3 4024.05 16050.6 3722.09 16050.6 3375.81 C 16050.6 3018.47 16338.7 2752.53 16662.8 2752.53 C 16998 2752.53 17277.8 3024 17277.8 3375.81 Z M 16665.5 2821.78 C 16546.4 2821.78 16424.5 2879.95 16349.8 3007.39 C 16280.5 3129.28 16280.5 3298.25 16280.5 3397.98 C 16280.5 3506.02 16280.5 3655.61 16347 3777.5 C 16421.8 3904.92 16552 3963.09 16662.8 3963.09 C 16784.7 3963.09 16903.8 3902.16 16975.8 3783.03 C 17047.8 3663.92 17047.8 3503.25 17047.8 3397.98 C 17047.8 3298.25 17047.8 3148.67 16986.9 3026.78 C 16925.9 2902.13 16804.1 2821.78 16665.5 2821.78 "/>
<path transform="matrix(.00359712,0,0,-.00359712,0,51.48)" d="M 17934.2 3320.42 C 17995.1 3309.33 18222.3 3265.02 18222.3 3065.56 C 18222.3 2924.28 18125.3 2813.47 17909.3 2813.47 C 17676.6 2813.47 17576.8 2971.38 17524.2 3206.84 C 17515.9 3242.84 17513.1 3253.94 17485.4 3253.94 C 17449.4 3253.94 17449.4 3234.55 17449.4 3184.67 L 17449.4 2819.02 C 17449.4 2771.92 17449.4 2752.53 17479.9 2752.53 C 17493.7 2752.53 17496.5 2755.3 17549.1 2807.94 C 17554.7 2813.47 17554.7 2819.02 17604.5 2871.64 C 17726.4 2755.3 17851.1 2752.53 17909.3 2752.53 C 18227.8 2752.53 18355.3 2938.13 18355.3 3137.58 C 18355.3 3284.41 18272.2 3367.52 18238.9 3400.75 C 18147.5 3489.39 18039.5 3511.56 17923.1 3533.72 C 17768 3564.19 17582.4 3600.2 17582.4 3760.88 C 17582.4 3857.83 17654.4 3971.41 17892.6 3971.41 C 18197.4 3971.41 18211.2 3722.09 18216.8 3636.22 C 18219.5 3611.28 18244.5 3611.28 18250 3611.28 C 18286 3611.28 18286 3625.14 18286 3677.77 L 18286 3957.56 C 18286 4004.66 18286 4024.05 18255.5 4024.05 C 18241.7 4024.05 18236.2 4024.05 18200.1 3990.8 C 18191.8 3979.72 18164.1 3954.8 18153 3946.48 C 18047.8 4024.05 17934.2 4024.05 17892.6 4024.05 C 17554.7 4024.05 17449.4 3838.44 17449.4 3683.31 C 17449.4 3586.36 17493.7 3508.8 17568.5 3447.84 C 17657.2 3375.81 17734.8 3359.2 17934.2 3320.42 "/>
<path transform="matrix(.00359712,0,0,-.00359712,0,51.48)" d="M 20339.6 1014.72 C 20345.2 1011.94 20370.1 984.234 20372.9 984.234 L 20433.8 984.234 C 20442.1 984.234 20464.3 987.016 20464.3 1011.94 C 20464.3 1023.02 20458.8 1028.56 20453.2 1036.88 C 20353.5 1136.59 20203.9 1288.95 20032.2 1593.69 C 19733 2125.56 19622.2 2809.8 19622.2 3474.64 C 19622.2 4704.61 19971.2 5427.63 20456 5917.94 C 20464.3 5926.25 20464.3 5934.56 20464.3 5940.11 C 20464.3 5967.81 20444.9 5967.81 20411.7 5967.81 C 20375.7 5967.81 20370.1 5967.81 20345.2 5945.64 C 20082 5718.48 19785.6 5333.44 19594.5 4748.92 C 19475.3 4383.27 19411.6 3937.27 19411.6 3477.41 C 19411.6 2820.88 19530.8 2078.47 19965.7 1435.78 C 20040.5 1327.75 20143 1214.17 20143 1211.39 C 20170.7 1178.16 20209.5 1133.83 20231.6 1114.44 L 20339.6 1014.72 "/>
<path transform="matrix(.00359712,0,0,-.00359712,0,51.48)" d="M 21301.1 3816.28 L 21614.1 3816.28 C 21522.7 3406.3 21497.8 3287.17 21497.8 3101.58 C 21497.8 3060.02 21497.8 2985.22 21519.9 2891.03 C 21547.6 2769.16 21578.1 2752.53 21619.7 2752.53 C 21675.1 2752.53 21733.3 2802.39 21733.3 2857.8 C 21733.3 2874.42 21733.3 2879.95 21716.6 2918.73 C 21636.3 3118.19 21636.3 3298.25 21636.3 3375.81 C 21636.3 3522.64 21655.7 3672.23 21686.2 3816.28 L 22002 3816.28 C 22038 3816.28 22137.7 3816.28 22137.7 3910.47 C 22137.7 3976.95 22079.5 3976.95 22026.9 3976.95 L 21098.9 3976.95 C 21037.9 3976.95 20932.7 3976.95 20810.8 3846.75 C 20713.8 3738.72 20641.8 3611.28 20641.8 3597.44 C 20641.8 3594.67 20641.8 3569.73 20675 3569.73 C 20697.2 3569.73 20702.7 3580.81 20719.4 3602.97 C 20855.1 3816.28 21015.8 3816.28 21071.2 3816.28 L 21229.1 3816.28 C 21140.4 3481.09 20990.8 3145.89 20874.5 2893.81 C 20852.3 2852.25 20852.3 2846.72 20852.3 2827.33 C 20852.3 2774.69 20896.7 2752.53 20932.7 2752.53 C 21015.8 2752.53 21037.9 2830.09 21071.2 2932.59 C 21110 3060.02 21110 3065.56 21146 3204.06 L 21301.1 3816.28 "/>
<path transform="matrix(.00359712,0,0,-.00359712,0,51.48)" d="M 23994 3420.14 L 24766.9 3420.14 C 24805.7 3420.14 24858.3 3420.14 24858.3 3475.55 C 24858.3 3530.95 24805.7 3530.95 24766.9 3530.95 L 23994 3530.95 L 23994 4306.61 C 23994 4345.39 23994 4398.02 23938.6 4398.02 C 23883.2 4398.02 23883.2 4345.39 23883.2 4306.61 L 23883.2 3530.95 L 23107.5 3530.95 C 23068.8 3530.95 23016.1 3530.95 23016.1 3475.55 C 23016.1 3420.14 23068.8 3420.14 23107.5 3420.14 L 23883.2 3420.14 L 23883.2 2644.48 C 23883.2 2605.7 23883.2 2553.08 23938.6 2553.08 C 23994 2553.08 23994 2605.7 23994 2644.48 L 23994 3420.14 "/>
<path transform="matrix(.00359712,0,0,-.00359712,0,51.48)" d="M 26697.1 5690.28 L 27010.1 5690.28 C 26918.7 5280.3 26893.8 5161.17 26893.8 4975.58 C 26893.8 4934.02 26893.8 4859.22 26915.9 4765.03 C 26943.6 4643.16 26974.1 4626.53 27015.7 4626.53 C 27071.1 4626.53 27129.3 4676.39 27129.3 4731.8 C 27129.3 4748.42 27129.3 4753.95 27112.6 4792.73 C 27032.3 4992.19 27032.3 5172.25 27032.3 5249.81 C 27032.3 5396.64 27051.7 5546.23 27082.2 5690.28 L 27398 5690.28 C 27434 5690.28 27533.7 5690.28 27533.7 5784.47 C 27533.7 5850.95 27475.5 5850.95 27422.9 5850.95 L 26494.9 5850.95 C 26433.9 5850.95 26328.7 5850.95 26206.8 5720.75 C 26109.8 5612.72 26037.8 5485.28 26037.8 5471.44 C 26037.8 5468.67 26037.8 5443.73 26071 5443.73 C 26093.2 5443.73 26098.7 5454.81 26115.4 5476.97 C 26251.1 5690.28 26411.8 5690.28 26467.2 5690.28 L 26625.1 5690.28 C 26536.4 5355.09 26386.8 5019.89 26270.5 4767.81 C 26248.3 4726.25 26248.3 4720.72 26248.3 4701.33 C 26248.3 4648.69 26292.7 4626.53 26328.7 4626.53 C 26411.8 4626.53 26433.9 4704.09 26467.2 4806.59 C 26506 4934.02 26506 4939.56 26542 5078.06 L 26697.1 5690.28 "/>
<path transform="matrix(.00359712,0,0,-.00359712,0,51.48)" stroke-width="110.783" stroke-linecap="butt" stroke-miterlimit="10" stroke-linejoin="miter" fill="none" stroke="#000000" d="M 25963 3475.29 L 27641 3475.29 "/>
<path transform="matrix(.00359712,0,0,-.00359712,0,51.48)" d="M 26214.8 1046.44 C 26206.5 1004.89 26189.8 941.172 26189.8 927.328 C 26189.8 877.453 26228.6 852.531 26270.2 852.531 C 26303.4 852.531 26353.3 874.688 26372.7 930.094 C 26375.5 935.641 26408.7 1065.83 26425.3 1135.09 L 26486.3 1384.41 C 26502.9 1445.34 26519.5 1506.3 26533.3 1570 C 26544.4 1617.09 26566.6 1697.44 26569.4 1708.52 C 26610.9 1794.39 26757.7 2046.48 27020.9 2046.48 C 27145.6 2046.48 27170.5 1943.98 27170.5 1852.56 C 27170.5 1680.81 27034.8 1326.23 26990.4 1207.11 C 26965.5 1143.39 26962.7 1110.16 26962.7 1079.69 C 26962.7 949.484 27059.7 852.531 27189.9 852.531 C 27450.3 852.531 27552.8 1256.97 27552.8 1279.14 C 27552.8 1306.84 27527.8 1306.84 27519.5 1306.84 C 27491.8 1306.84 27491.8 1298.53 27478 1256.97 C 27422.6 1068.61 27331.2 913.469 27195.4 913.469 C 27148.3 913.469 27128.9 941.172 27128.9 1004.89 C 27128.9 1074.14 27153.9 1140.63 27178.8 1201.58 C 27231.4 1348.39 27347.8 1653.11 27347.8 1811.02 C 27347.8 1996.61 27228.7 2107.42 27029.2 2107.42 C 26779.9 2107.42 26644.2 1930.13 26597.1 1866.42 C 26583.2 2021.55 26469.6 2107.42 26342.2 2107.42 C 26214.8 2107.42 26162.1 1999.39 26134.4 1949.52 C 26090.1 1855.33 26051.3 1691.89 26051.3 1680.81 C 26051.3 1653.11 26079 1653.11 26084.6 1653.11 C 26112.3 1653.11 26115 1655.88 26131.7 1716.83 C 26178.8 1913.52 26234.2 2046.48 26333.9 2046.48 C 26389.3 2046.48 26419.8 2010.47 26419.8 1919.05 C 26419.8 1860.88 26411.5 1830.41 26375.5 1686.36 L 26214.8 1046.44 "/>
<path transform="matrix(.00359712,0,0,-.00359712,0,51.48)" d="M 29125.4 3477.41 C 29125.4 4272.45 28939.8 5117.36 28394.1 5740.66 C 28355.3 5784.97 28252.8 5893.02 28186.3 5951.19 C 28166.9 5967.81 28161.4 5967.81 28125.4 5967.81 C 28097.7 5967.81 28072.7 5967.81 28072.7 5940.11 C 28072.7 5929.03 28083.8 5917.94 28089.3 5912.41 C 28183.5 5815.45 28333.1 5663.09 28504.9 5358.36 C 28804.1 4826.48 28914.9 4142.25 28914.9 3477.41 C 28914.9 2275.14 28582.4 1541.05 28083.8 1034.11 C 28078.3 1028.56 28072.7 1020.25 28072.7 1011.94 C 28072.7 984.234 28097.7 984.234 28125.4 984.234 C 28161.4 984.234 28166.9 984.234 28191.8 1006.41 C 28455 1233.56 28751.4 1618.61 28942.6 2203.13 C 29064.5 2582.64 29125.4 3031.41 29125.4 3477.41 "/>
<path transform="matrix(.00359712,0,0,-.00359712,0,51.48)" d="M 31376 3420.14 L 32148.9 3420.14 C 32187.7 3420.14 32240.3 3420.14 32240.3 3475.55 C 32240.3 3530.95 32187.7 3530.95 32148.9 3530.95 L 31376 3530.95 L 31376 4306.61 C 31376 4345.39 31376 4398.02 31320.6 4398.02 C 31265.2 4398.02 31265.2 4345.39 31265.2 4306.61 L 31265.2 3530.95 L 30489.5 3530.95 C 30450.8 3530.95 30398.1 3530.95 30398.1 3475.55 C 30398.1 3420.14 30450.8 3420.14 30489.5 3420.14 L 31265.2 3420.14 L 31265.2 2644.48 C 31265.2 2605.7 31265.2 2553.08 31320.6 2553.08 C 31376 2553.08 31376 2605.7 31376 2644.48 L 31376 3420.14 "/>
<path transform="matrix(.00359712,0,0,-.00359712,0,51.48)" d="M 33334.1 3386.91 C 33334.1 3838.44 33561.3 3954.8 33708.1 3954.8 C 33733 3954.8 33907.5 3952.02 34004.5 3852.3 C 33890.9 3843.98 33874.3 3760.88 33874.3 3724.86 C 33874.3 3652.84 33924.2 3597.44 34001.7 3597.44 C 34073.8 3597.44 34129.2 3644.53 34129.2 3727.64 C 34129.2 3916 33918.6 4024.05 33705.3 4024.05 C 33359 4024.05 33104.2 3724.86 33104.2 3381.36 C 33104.2 3026.78 33378.4 2752.53 33699.8 2752.53 C 34071 2752.53 34159.6 3084.95 34159.6 3112.66 C 34159.6 3140.36 34131.9 3140.36 34123.6 3140.36 C 34098.7 3140.36 34093.1 3129.28 34087.6 3112.66 C 34007.3 2855.03 33827.2 2821.78 33724.7 2821.78 C 33577.9 2821.78 33334.1 2940.91 33334.1 3386.91 "/>
<path transform="matrix(.00359712,0,0,-.00359712,0,51.48)" d="M 35544.8 3375.81 C 35544.8 3730.41 35267.7 4024.05 34932.5 4024.05 C 34586.3 4024.05 34317.6 3722.09 34317.6 3375.81 C 34317.6 3018.47 34605.7 2752.53 34929.8 2752.53 C 35265 2752.53 35544.8 3024 35544.8 3375.81 Z M 34932.5 2821.78 C 34813.4 2821.78 34691.5 2879.95 34616.8 3007.39 C 34547.5 3129.28 34547.5 3298.25 34547.5 3397.98 C 34547.5 3506.02 34547.5 3655.61 34614 3777.5 C 34688.8 3904.92 34819 3963.09 34929.8 3963.09 C 35051.7 3963.09 35170.8 3902.16 35242.8 3783.03 C 35314.8 3663.92 35314.8 3503.25 35314.8 3397.98 C 35314.8 3298.25 35314.8 3148.67 35253.9 3026.78 C 35192.9 2902.13 35071.1 2821.78 34932.5 2821.78 "/>
<path transform="matrix(.00359712,0,0,-.00359712,0,51.48)" d="M 36200.2 3320.42 C 36261.1 3309.33 36488.3 3265.02 36488.3 3065.56 C 36488.3 2924.28 36391.3 2813.47 36175.3 2813.47 C 35942.6 2813.47 35842.8 2971.38 35790.2 3206.84 C 35781.9 3242.84 35779.1 3253.94 35751.4 3253.94 C 35715.4 3253.94 35715.4 3234.55 35715.4 3184.67 L 35715.4 2819.02 C 35715.4 2771.92 35715.4 2752.53 35745.9 2752.53 C 35759.7 2752.53 35762.5 2755.3 35815.1 2807.94 C 35820.7 2813.47 35820.7 2819.02 35870.5 2871.64 C 35992.4 2755.3 36117.1 2752.53 36175.3 2752.53 C 36493.8 2752.53 36621.3 2938.13 36621.3 3137.58 C 36621.3 3284.41 36538.2 3367.52 36504.9 3400.75 C 36413.5 3489.39 36305.5 3511.56 36189.1 3533.72 C 36034 3564.19 35848.4 3600.2 35848.4 3760.88 C 35848.4 3857.83 35920.4 3971.41 36158.6 3971.41 C 36463.4 3971.41 36477.2 3722.09 36482.8 3636.22 C 36485.5 3611.28 36510.5 3611.28 36516 3611.28 C 36552 3611.28 36552 3625.14 36552 3677.77 L 36552 3957.56 C 36552 4004.66 36552 4024.05 36521.5 4024.05 C 36507.7 4024.05 36502.2 4024.05 36466.1 3990.8 C 36457.8 3979.72 36430.1 3954.8 36419 3946.48 C 36313.8 4024.05 36200.2 4024.05 36158.6 4024.05 C 35820.7 4024.05 35715.4 3838.44 35715.4 3683.31 C 35715.4 3586.36 35759.7 3508.8 35834.5 3447.84 C 35923.2 3375.81 36000.8 3359.2 36200.2 3320.42 "/>
<path transform="matrix(.00359712,0,0,-.00359712,0,51.48)" d="M 37916.1 3816.28 L 38229.1 3816.28 C 38137.7 3406.3 38112.8 3287.17 38112.8 3101.58 C 38112.8 3060.02 38112.8 2985.22 38134.9 2891.03 C 38162.6 2769.16 38193.1 2752.53 38234.7 2752.53 C 38290.1 2752.53 38348.3 2802.39 38348.3 2857.8 C 38348.3 2874.42 38348.3 2879.95 38331.6 2918.73 C 38251.3 3118.19 38251.3 3298.25 38251.3 3375.81 C 38251.3 3522.64 38270.7 3672.23 38301.2 3816.28 L 38617 3816.28 C 38653 3816.28 38752.7 3816.28 38752.7 3910.47 C 38752.7 3976.95 38694.5 3976.95 38641.9 3976.95 L 37713.9 3976.95 C 37652.9 3976.95 37547.7 3976.95 37425.8 3846.75 C 37328.8 3738.72 37256.8 3611.28 37256.8 3597.44 C 37256.8 3594.67 37256.8 3569.73 37290 3569.73 C 37312.2 3569.73 37317.7 3580.81 37334.4 3602.97 C 37470.1 3816.28 37630.8 3816.28 37686.2 3816.28 L 37844.1 3816.28 C 37755.4 3481.09 37605.8 3145.89 37489.5 2893.81 C 37467.3 2852.25 37467.3 2846.72 37467.3 2827.33 C 37467.3 2774.69 37511.7 2752.53 37547.7 2752.53 C 37630.8 2752.53 37652.9 2830.09 37686.2 2932.59 C 37725 3060.02 37725 3065.56 37761 3204.06 L 37916.1 3816.28 "/>
<path transform="matrix(.00359712,0,0,-.00359712,0,51.48)" d="M 41301.5 3420.14 C 41348.6 3420.14 41398.5 3420.14 41398.5 3475.55 C 41398.5 3530.95 41348.6 3530.95 41301.5 3530.95 L 39802.9 3530.95 C 39755.8 3530.95 39705.9 3530.95 39705.9 3475.55 C 39705.9 3420.14 39755.8 3420.14 39802.9 3420.14 L 41301.5 3420.14 "/>
<path transform="matrix(.00359712,0,0,-.00359712,0,51.48)" d="M 42569.1 3386.91 C 42569.1 3838.44 42796.3 3954.8 42943.1 3954.8 C 42968 3954.8 43142.5 3952.02 43239.5 3852.3 C 43125.9 3843.98 43109.3 3760.88 43109.3 3724.86 C 43109.3 3652.84 43159.2 3597.44 43236.7 3597.44 C 43308.8 3597.44 43364.2 3644.53 43364.2 3727.64 C 43364.2 3916 43153.6 4024.05 42940.3 4024.05 C 42594 4024.05 42339.2 3724.86 42339.2 3381.36 C 42339.2 3026.78 42613.4 2752.53 42934.8 2752.53 C 43306 2752.53 43394.6 3084.95 43394.6 3112.66 C 43394.6 3140.36 43366.9 3140.36 43358.6 3140.36 C 43333.7 3140.36 43328.1 3129.28 43322.6 3112.66 C 43242.3 2855.03 43062.2 2821.78 42959.7 2821.78 C 42812.9 2821.78 42569.1 2940.91 42569.1 3386.91 "/>
<path transform="matrix(.00359712,0,0,-.00359712,0,51.48)" d="M 44779.8 3375.81 C 44779.8 3730.41 44502.7 4024.05 44167.5 4024.05 C 43821.3 4024.05 43552.6 3722.09 43552.6 3375.81 C 43552.6 3018.47 43840.7 2752.53 44164.8 2752.53 C 44500 2752.53 44779.8 3024 44779.8 3375.81 Z M 44167.5 2821.78 C 44048.4 2821.78 43926.5 2879.95 43851.8 3007.39 C 43782.5 3129.28 43782.5 3298.25 43782.5 3397.98 C 43782.5 3506.02 43782.5 3655.61 43849 3777.5 C 43923.8 3904.92 44054 3963.09 44164.8 3963.09 C 44286.7 3963.09 44405.8 3902.16 44477.8 3783.03 C 44549.8 3663.92 44549.8 3503.25 44549.8 3397.98 C 44549.8 3298.25 44549.8 3148.67 44488.9 3026.78 C 44427.9 2902.13 44306.1 2821.78 44167.5 2821.78 "/>
<path transform="matrix(.00359712,0,0,-.00359712,0,51.48)" d="M 45436.2 3320.42 C 45497.1 3309.33 45724.3 3265.02 45724.3 3065.56 C 45724.3 2924.28 45627.3 2813.47 45411.3 2813.47 C 45178.6 2813.47 45078.8 2971.38 45026.2 3206.84 C 45017.9 3242.84 45015.1 3253.94 44987.4 3253.94 C 44951.4 3253.94 44951.4 3234.55 44951.4 3184.67 L 44951.4 2819.02 C 44951.4 2771.92 44951.4 2752.53 44981.9 2752.53 C 44995.7 2752.53 44998.5 2755.3 45051.1 2807.94 C 45056.7 2813.47 45056.7 2819.02 45106.5 2871.64 C 45228.4 2755.3 45353.1 2752.53 45411.3 2752.53 C 45729.8 2752.53 45857.3 2938.13 45857.3 3137.58 C 45857.3 3284.41 45774.2 3367.52 45740.9 3400.75 C 45649.5 3489.39 45541.5 3511.56 45425.1 3533.72 C 45270 3564.19 45084.4 3600.2 45084.4 3760.88 C 45084.4 3857.83 45156.4 3971.41 45394.6 3971.41 C 45699.4 3971.41 45713.2 3722.09 45718.8 3636.22 C 45721.5 3611.28 45746.5 3611.28 45752 3611.28 C 45788 3611.28 45788 3625.14 45788 3677.77 L 45788 3957.56 C 45788 4004.66 45788 4024.05 45757.5 4024.05 C 45743.7 4024.05 45738.2 4024.05 45702.1 3990.8 C 45693.8 3979.72 45666.1 3954.8 45655 3946.48 C 45549.8 4024.05 45436.2 4024.05 45394.6 4024.05 C 45056.7 4024.05 44951.4 3838.44 44951.4 3683.31 C 44951.4 3586.36 44995.7 3508.8 45070.5 3447.84 C 45159.2 3375.81 45236.8 3359.2 45436.2 3320.42 "/>
<path transform="matrix(.00359712,0,0,-.00359712,0,51.48)" d="M 47685.3 3669.45 C 47685.3 3891.08 47671.4 4112.69 47574.5 4317.69 C 47447 4583.63 47219.9 4627.94 47103.5 4627.94 C 46937.3 4627.94 46735.1 4555.92 46621.5 4298.3 C 46532.9 4107.16 46519 3891.08 46519 3669.45 C 46519 3461.7 46530.1 3212.38 46643.7 3001.84 C 46762.8 2777.45 46965 2722.06 47100.8 2722.06 C 47250.4 2722.06 47460.9 2780.23 47582.8 3043.39 C 47671.4 3234.55 47685.3 3450.61 47685.3 3669.45 Z M 47100.8 2783 C 46992.7 2783 46829.3 2852.25 46779.4 3118.19 C 46749 3284.41 46749 3539.27 46749 3702.7 C 46749 3880 46749 4062.83 46771.1 4212.42 C 46823.8 4542.06 47031.5 4567 47100.8 4567 C 47192.2 4567 47375 4517.14 47427.7 4242.89 C 47455.4 4087.77 47455.4 3877.22 47455.4 3702.7 C 47455.4 3494.94 47455.4 3306.56 47424.9 3129.28 C 47383.3 2866.11 47225.4 2783 47100.8 2783 "/>
<path transform="matrix(.00359712,0,0,-.00359712,0,51.48)" d="M 50241.5 3420.14 C 50288.6 3420.14 50338.5 3420.14 50338.5 3475.55 C 50338.5 3530.95 50288.6 3530.95 50241.5 3530.95 L 48742.9 3530.95 C 48695.8 3530.95 48645.9 3530.95 48645.9 3475.55 C 48645.9 3420.14 48695.8 3420.14 48742.9 3420.14 L 50241.5 3420.14 "/>
<path transform="matrix(.00359712,0,0,-.00359712,0,51.48)" d="M 51509.1 3386.91 C 51509.1 3838.44 51736.3 3954.8 51883.1 3954.8 C 51908 3954.8 52082.5 3952.02 52179.5 3852.3 C 52065.9 3843.98 52049.3 3760.88 52049.3 3724.86 C 52049.3 3652.84 52099.2 3597.44 52176.7 3597.44 C 52248.8 3597.44 52304.2 3644.53 52304.2 3727.64 C 52304.2 3916 52093.6 4024.05 51880.3 4024.05 C 51534 4024.05 51279.2 3724.86 51279.2 3381.36 C 51279.2 3026.78 51553.4 2752.53 51874.8 2752.53 C 52246 2752.53 52334.6 3084.95 52334.6 3112.66 C 52334.6 3140.36 52306.9 3140.36 52298.6 3140.36 C 52273.7 3140.36 52268.1 3129.28 52262.6 3112.66 C 52182.3 2855.03 52002.2 2821.78 51899.7 2821.78 C 51752.9 2821.78 51509.1 2940.91 51509.1 3386.91 "/>
<path transform="matrix(.00359712,0,0,-.00359712,0,51.48)" d="M 53719.8 3375.81 C 53719.8 3730.41 53442.7 4024.05 53107.5 4024.05 C 52761.3 4024.05 52492.6 3722.09 52492.6 3375.81 C 52492.6 3018.47 52780.7 2752.53 53104.8 2752.53 C 53440 2752.53 53719.8 3024 53719.8 3375.81 Z M 53107.5 2821.78 C 52988.4 2821.78 52866.5 2879.95 52791.8 3007.39 C 52722.5 3129.28 52722.5 3298.25 52722.5 3397.98 C 52722.5 3506.02 52722.5 3655.61 52789 3777.5 C 52863.8 3904.92 52994 3963.09 53104.8 3963.09 C 53226.7 3963.09 53345.8 3902.16 53417.8 3783.03 C 53489.8 3663.92 53489.8 3503.25 53489.8 3397.98 C 53489.8 3298.25 53489.8 3148.67 53428.9 3026.78 C 53367.9 2902.13 53246.1 2821.78 53107.5 2821.78 "/>
<path transform="matrix(.00359712,0,0,-.00359712,0,51.48)" d="M 54376.2 3320.42 C 54437.1 3309.33 54664.3 3265.02 54664.3 3065.56 C 54664.3 2924.28 54567.3 2813.47 54351.3 2813.47 C 54118.6 2813.47 54018.8 2971.38 53966.2 3206.84 C 53957.9 3242.84 53955.1 3253.94 53927.4 3253.94 C 53891.4 3253.94 53891.4 3234.55 53891.4 3184.67 L 53891.4 2819.02 C 53891.4 2771.92 53891.4 2752.53 53921.9 2752.53 C 53935.7 2752.53 53938.5 2755.3 53991.1 2807.94 C 53996.7 2813.47 53996.7 2819.02 54046.5 2871.64 C 54168.4 2755.3 54293.1 2752.53 54351.3 2752.53 C 54669.8 2752.53 54797.3 2938.13 54797.3 3137.58 C 54797.3 3284.41 54714.2 3367.52 54680.9 3400.75 C 54589.5 3489.39 54481.5 3511.56 54365.1 3533.72 C 54210 3564.19 54024.4 3600.2 54024.4 3760.88 C 54024.4 3857.83 54096.4 3971.41 54334.6 3971.41 C 54639.4 3971.41 54653.2 3722.09 54658.8 3636.22 C 54661.5 3611.28 54686.5 3611.28 54692 3611.28 C 54728 3611.28 54728 3625.14 54728 3677.77 L 54728 3957.56 C 54728 4004.66 54728 4024.05 54697.5 4024.05 C 54683.7 4024.05 54678.2 4024.05 54642.1 3990.8 C 54633.8 3979.72 54606.1 3954.8 54595 3946.48 C 54489.8 4024.05 54376.2 4024.05 54334.6 4024.05 C 53996.7 4024.05 53891.4 3838.44 53891.4 3683.31 C 53891.4 3586.36 53935.7 3508.8 54010.5 3447.84 C 54099.2 3375.81 54176.8 3359.2 54376.2 3320.42 "/>
<path transform="matrix(.00359712,0,0,-.00359712,0,51.48)" d="M 56421.1 5690.28 L 56734.1 5690.28 C 56642.7 5280.3 56617.8 5161.17 56617.8 4975.58 C 56617.8 4934.02 56617.8 4859.22 56639.9 4765.03 C 56667.6 4643.16 56698.1 4626.53 56739.7 4626.53 C 56795.1 4626.53 56853.3 4676.39 56853.3 4731.8 C 56853.3 4748.42 56853.3 4753.95 56836.6 4792.73 C 56756.3 4992.19 56756.3 5172.25 56756.3 5249.81 C 56756.3 5396.64 56775.7 5546.23 56806.2 5690.28 L 57122 5690.28 C 57158 5690.28 57257.7 5690.28 57257.7 5784.47 C 57257.7 5850.95 57199.5 5850.95 57146.9 5850.95 L 56218.9 5850.95 C 56157.9 5850.95 56052.7 5850.95 55930.8 5720.75 C 55833.8 5612.72 55761.8 5485.28 55761.8 5471.44 C 55761.8 5468.67 55761.8 5443.73 55795 5443.73 C 55817.2 5443.73 55822.7 5454.81 55839.4 5476.97 C 55975.1 5690.28 56135.8 5690.28 56191.2 5690.28 L 56349.1 5690.28 C 56260.4 5355.09 56110.8 5019.89 55994.5 4767.81 C 55972.3 4726.25 55972.3 4720.72 55972.3 4701.33 C 55972.3 4648.69 56016.7 4626.53 56052.7 4626.53 C 56135.8 4626.53 56157.9 4704.09 56191.2 4806.59 C 56230 4934.02 56230 4939.56 56266 5078.06 L 56421.1 5690.28 "/>
<path transform="matrix(.00359712,0,0,-.00359712,0,51.48)" stroke-width="110.783" stroke-linecap="butt" stroke-miterlimit="10" stroke-linejoin="miter" fill="none" stroke="#000000" d="M 55687.3 3475.29 L 57365.6 3475.29 "/>
<path transform="matrix(.00359712,0,0,-.00359712,0,51.48)" d="M 55938.8 1046.44 C 55930.5 1004.89 55913.8 941.172 55913.8 927.328 C 55913.8 877.453 55952.6 852.531 55994.2 852.531 C 56027.4 852.531 56077.3 874.688 56096.7 930.094 C 56099.5 935.641 56132.7 1065.83 56149.3 1135.09 L 56210.3 1384.41 C 56226.9 1445.34 56243.5 1506.3 56257.3 1570 C 56268.4 1617.09 56290.6 1697.44 56293.4 1708.52 C 56334.9 1794.39 56481.7 2046.48 56744.9 2046.48 C 56869.6 2046.48 56894.5 1943.98 56894.5 1852.56 C 56894.5 1680.81 56758.8 1326.23 56714.4 1207.11 C 56689.5 1143.39 56686.7 1110.16 56686.7 1079.69 C 56686.7 949.484 56783.7 852.531 56913.9 852.531 C 57174.3 852.531 57276.8 1256.97 57276.8 1279.14 C 57276.8 1306.84 57251.8 1306.84 57243.5 1306.84 C 57215.8 1306.84 57215.8 1298.53 57202 1256.97 C 57146.6 1068.61 57055.2 913.469 56919.4 913.469 C 56872.3 913.469 56852.9 941.172 56852.9 1004.89 C 56852.9 1074.14 56877.9 1140.63 56902.8 1201.58 C 56955.4 1348.39 57071.8 1653.11 57071.8 1811.02 C 57071.8 1996.61 56952.7 2107.42 56753.2 2107.42 C 56503.9 2107.42 56368.2 1930.13 56321.1 1866.42 C 56307.2 2021.55 56193.6 2107.42 56066.2 2107.42 C 55938.8 2107.42 55886.1 1999.39 55858.4 1949.52 C 55814.1 1855.33 55775.3 1691.89 55775.3 1680.81 C 55775.3 1653.11 55803 1653.11 55808.6 1653.11 C 55836.3 1653.11 55839 1655.88 55855.7 1716.83 C 55902.8 1913.52 55958.2 2046.48 56057.9 2046.48 C 56113.3 2046.48 56143.8 2010.47 56143.8 1919.05 C 56143.8 1860.88 56135.5 1830.41 56099.5 1686.36 L 55938.8 1046.44 "/>
<path transform="matrix(.00359712,0,0,-.00359712,0,51.48)" d="M 58850.4 3477.41 C 58850.4 4272.45 58664.8 5117.36 58119.1 5740.66 C 58080.3 5784.97 57977.8 5893.02 57911.3 5951.19 C 57891.9 5967.81 57886.4 5967.81 57850.4 5967.81 C 57822.7 5967.81 57797.7 5967.81 57797.7 5940.11 C 57797.7 5929.03 57808.8 5917.94 57814.3 5912.41 C 57908.5 5815.45 58058.1 5663.09 58229.9 5358.36 C 58529.1 4826.48 58639.9 4142.25 58639.9 3477.41 C 58639.9 2275.14 58307.4 1541.05 57808.8 1034.11 C 57803.3 1028.56 57797.7 1020.25 57797.7 1011.94 C 57797.7 984.234 57822.7 984.234 57850.4 984.234 C 57886.4 984.234 57891.9 984.234 57916.8 1006.41 C 58180 1233.56 58476.4 1618.61 58667.6 2203.13 C 58789.5 2582.64 58850.4 3031.41 58850.4 3477.41 "/>
<path transform="matrix(.00359712,0,0,-.00359712,0,51.48)" d="M 62024.1 3688.84 C 62065.7 3688.84 62118.3 3688.84 62118.3 3744.25 C 62118.3 3799.66 62065.7 3799.66 62026.9 3799.66 L 60367.5 3799.66 C 60328.8 3799.66 60276.1 3799.66 60276.1 3744.25 C 60276.1 3688.84 60328.8 3688.84 60370.3 3688.84 L 62024.1 3688.84 Z M 62026.9 3151.44 C 62065.7 3151.44 62118.3 3151.44 62118.3 3206.84 C 62118.3 3262.25 62065.7 3262.25 62024.1 3262.25 L 60370.3 3262.25 C 60328.8 3262.25 60276.1 3262.25 60276.1 3206.84 C 60276.1 3151.44 60328.8 3151.44 60367.5 3151.44 L 62026.9 3151.44 "/>
<path transform="matrix(.00359712,0,0,-.00359712,0,51.48)" d="M 64191.4 6429.92 C 64191.4 6496.41 64191.4 6501.94 64127.7 6501.94 C 63956 6324.66 63712.2 6324.66 63623.5 6324.66 L 63623.5 6238.78 C 63679 6238.78 63842.4 6238.78 63986.4 6310.8 L 63986.4 4875.84 C 63986.4 4776.13 63978.1 4742.88 63728.8 4742.88 L 63640.2 4742.88 L 63640.2 4657 C 63737.1 4665.31 63978.1 4665.31 64088.9 4665.31 C 64199.8 4665.31 64440.8 4665.31 64537.7 4657 L 64537.7 4742.88 L 64449.1 4742.88 C 64199.8 4742.88 64191.4 4773.34 64191.4 4875.84 L 64191.4 6429.92 "/>
<path transform="matrix(.00359712,0,0,-.00359712,0,51.48)" stroke-width="110.783" stroke-linecap="butt" stroke-miterlimit="10" stroke-linejoin="miter" fill="none" stroke="#000000" d="M 63377.1 3475.29 L 64761.8 3475.29 "/>
<path transform="matrix(.00359712,0,0,-.00359712,0,51.48)" d="M 63728.8 1096.3 L 64022.5 1381.64 C 64454.6 1763.92 64620.8 1913.52 64620.8 2190.53 C 64620.8 2506.33 64371.5 2727.94 64033.5 2727.94 C 63720.5 2727.94 63515.5 2473.09 63515.5 2226.55 C 63515.5 2071.41 63654 2071.41 63662.3 2071.41 C 63709.4 2071.41 63806.4 2104.66 63806.4 2218.23 C 63806.4 2290.25 63756.5 2362.28 63659.6 2362.28 C 63637.4 2362.28 63631.9 2362.28 63623.5 2359.52 C 63687.3 2539.58 63836.8 2642.06 63997.5 2642.06 C 64249.6 2642.06 64368.7 2417.69 64368.7 2190.53 C 64368.7 1968.91 64230.2 1750.06 64077.9 1578.31 L 63546 985.5 C 63515.5 955.031 63515.5 949.484 63515.5 883 L 64543.3 883 L 64620.8 1365.02 L 64551.6 1365.02 C 64537.7 1281.91 64518.3 1160.02 64490.6 1118.47 C 64471.2 1096.3 64288.4 1096.3 64227.5 1096.3 L 63728.8 1096.3 "/>
<path transform="matrix(.00359712,0,0,-.00359712,0,51.48)" d="M 66010.9 2118.16 C 66010.9 2126.47 66010.9 2132 65963.8 2179.09 C 65617.6 2528.14 65528.9 3051.7 65528.9 3475.55 C 65528.9 3957.56 65634.2 4439.58 65974.9 4785.84 C 66010.9 4819.09 66010.9 4824.63 66010.9 4832.94 C 66010.9 4852.33 65999.8 4860.64 65983.2 4860.64 C 65955.5 4860.64 65706.2 4672.27 65542.8 4320.45 C 65401.5 4015.73 65368.3 3708.25 65368.3 3475.55 C 65368.3 3259.47 65398.7 2924.28 65551.1 2611.25 C 65717.3 2270.52 65955.5 2090.45 65983.2 2090.45 C 65999.8 2090.45 66010.9 2098.77 66010.9 2118.16 "/>
<path transform="matrix(.00359712,0,0,-.00359712,0,51.48)" d="M 66520.8 2996.3 L 66814.5 3281.64 C 67246.6 3663.92 67412.8 3813.52 67412.8 4090.53 C 67412.8 4406.33 67163.5 4627.94 66825.5 4627.94 C 66512.5 4627.94 66307.5 4373.09 66307.5 4126.55 C 66307.5 3971.41 66446 3971.41 66454.3 3971.41 C 66501.4 3971.41 66598.4 4004.66 66598.4 4118.23 C 66598.4 4190.25 66548.5 4262.28 66451.6 4262.28 C 66429.4 4262.28 66423.9 4262.28 66415.5 4259.52 C 66479.3 4439.58 66628.8 4542.06 66789.5 4542.06 C 67041.6 4542.06 67160.7 4317.69 67160.7 4090.53 C 67160.7 3868.91 67022.2 3650.06 66869.9 3478.31 L 66338 2885.5 C 66307.5 2855.03 66307.5 2849.48 66307.5 2783 L 67335.3 2783 L 67412.8 3265.02 L 67343.6 3265.02 C 67329.7 3181.91 67310.3 3060.02 67282.6 3018.47 C 67263.2 2996.3 67080.4 2996.3 67019.5 2996.3 L 66520.8 2996.3 "/>
<path transform="matrix(.00359712,0,0,-.00359712,0,51.48)" d="M 68337.1 3386.91 C 68337.1 3838.44 68564.3 3954.8 68711.1 3954.8 C 68736 3954.8 68910.5 3952.02 69007.5 3852.3 C 68893.9 3843.98 68877.3 3760.88 68877.3 3724.86 C 68877.3 3652.84 68927.2 3597.44 69004.7 3597.44 C 69076.8 3597.44 69132.2 3644.53 69132.2 3727.64 C 69132.2 3916 68921.6 4024.05 68708.3 4024.05 C 68362 4024.05 68107.2 3724.86 68107.2 3381.36 C 68107.2 3026.78 68381.4 2752.53 68702.8 2752.53 C 69074 2752.53 69162.6 3084.95 69162.6 3112.66 C 69162.6 3140.36 69134.9 3140.36 69126.6 3140.36 C 69101.7 3140.36 69096.1 3129.28 69090.6 3112.66 C 69010.3 2855.03 68830.2 2821.78 68727.7 2821.78 C 68580.9 2821.78 68337.1 2940.91 68337.1 3386.91 "/>
<path transform="matrix(.00359712,0,0,-.00359712,0,51.48)" d="M 70547.8 3375.81 C 70547.8 3730.41 70270.7 4024.05 69935.5 4024.05 C 69589.3 4024.05 69320.6 3722.09 69320.6 3375.81 C 69320.6 3018.47 69608.7 2752.53 69932.8 2752.53 C 70268 2752.53 70547.8 3024 70547.8 3375.81 Z M 69935.5 2821.78 C 69816.4 2821.78 69694.5 2879.95 69619.8 3007.39 C 69550.5 3129.28 69550.5 3298.25 69550.5 3397.98 C 69550.5 3506.02 69550.5 3655.61 69617 3777.5 C 69691.8 3904.92 69822 3963.09 69932.8 3963.09 C 70054.7 3963.09 70173.8 3902.16 70245.8 3783.03 C 70317.8 3663.92 70317.8 3503.25 70317.8 3397.98 C 70317.8 3298.25 70317.8 3148.67 70256.9 3026.78 C 70195.9 2902.13 70074.1 2821.78 69935.5 2821.78 "/>
<path transform="matrix(.00359712,0,0,-.00359712,0,51.48)" d="M 71204.2 3320.42 C 71265.1 3309.33 71492.3 3265.02 71492.3 3065.56 C 71492.3 2924.28 71395.3 2813.47 71179.3 2813.47 C 70946.6 2813.47 70846.8 2971.38 70794.2 3206.84 C 70785.9 3242.84 70783.1 3253.94 70755.4 3253.94 C 70719.4 3253.94 70719.4 3234.55 70719.4 3184.67 L 70719.4 2819.02 C 70719.4 2771.92 70719.4 2752.53 70749.9 2752.53 C 70763.7 2752.53 70766.5 2755.3 70819.1 2807.94 C 70824.7 2813.47 70824.7 2819.02 70874.5 2871.64 C 70996.4 2755.3 71121.1 2752.53 71179.3 2752.53 C 71497.8 2752.53 71625.3 2938.13 71625.3 3137.58 C 71625.3 3284.41 71542.2 3367.52 71508.9 3400.75 C 71417.5 3489.39 71309.5 3511.56 71193.1 3533.72 C 71038 3564.19 70852.4 3600.2 70852.4 3760.88 C 70852.4 3857.83 70924.4 3971.41 71162.6 3971.41 C 71467.4 3971.41 71481.2 3722.09 71486.8 3636.22 C 71489.5 3611.28 71514.5 3611.28 71520 3611.28 C 71556 3611.28 71556 3625.14 71556 3677.77 L 71556 3957.56 C 71556 4004.66 71556 4024.05 71525.5 4024.05 C 71511.7 4024.05 71506.2 4024.05 71470.1 3990.8 C 71461.8 3979.72 71434.1 3954.8 71423 3946.48 C 71317.8 4024.05 71204.2 4024.05 71162.6 4024.05 C 70824.7 4024.05 70719.4 3838.44 70719.4 3683.31 C 70719.4 3586.36 70763.7 3508.8 70838.5 3447.84 C 70927.2 3375.81 71004.8 3359.2 71204.2 3320.42 "/>
<path transform="matrix(.00359712,0,0,-.00359712,0,51.48)" d="M 73456.3 3669.45 C 73456.3 3891.08 73442.4 4112.69 73345.5 4317.69 C 73218 4583.63 72990.9 4627.94 72874.5 4627.94 C 72708.3 4627.94 72506.1 4555.92 72392.5 4298.3 C 72303.9 4107.16 72290 3891.08 72290 3669.45 C 72290 3461.7 72301.1 3212.38 72414.7 3001.84 C 72533.8 2777.45 72736 2722.06 72871.8 2722.06 C 73021.4 2722.06 73231.9 2780.23 73353.8 3043.39 C 73442.4 3234.55 73456.3 3450.61 73456.3 3669.45 Z M 72871.8 2783 C 72763.7 2783 72600.3 2852.25 72550.4 3118.19 C 72520 3284.41 72520 3539.27 72520 3702.7 C 72520 3880 72520 4062.83 72542.1 4212.42 C 72594.8 4542.06 72802.5 4567 72871.8 4567 C 72963.2 4567 73146 4517.14 73198.7 4242.89 C 73226.4 4087.77 73226.4 3877.22 73226.4 3702.7 C 73226.4 3494.94 73226.4 3306.56 73195.9 3129.28 C 73154.3 2866.11 72996.4 2783 72871.8 2783 "/>
<path transform="matrix(.00359712,0,0,-.00359712,0,51.48)" d="M 76013.5 3420.14 C 76060.6 3420.14 76110.5 3420.14 76110.5 3475.55 C 76110.5 3530.95 76060.6 3530.95 76013.5 3530.95 L 74514.9 3530.95 C 74467.8 3530.95 74417.9 3530.95 74417.9 3475.55 C 74417.9 3420.14 74467.8 3420.14 74514.9 3420.14 L 76013.5 3420.14 "/>
<path transform="matrix(.00359712,0,0,-.00359712,0,51.48)" d="M 77308.8 2996.3 L 77602.5 3281.64 C 78034.6 3663.92 78200.8 3813.52 78200.8 4090.53 C 78200.8 4406.33 77951.5 4627.94 77613.5 4627.94 C 77300.5 4627.94 77095.5 4373.09 77095.5 4126.55 C 77095.5 3971.41 77234 3971.41 77242.3 3971.41 C 77289.4 3971.41 77386.4 4004.66 77386.4 4118.23 C 77386.4 4190.25 77336.5 4262.28 77239.6 4262.28 C 77217.4 4262.28 77211.9 4262.28 77203.5 4259.52 C 77267.3 4439.58 77416.8 4542.06 77577.5 4542.06 C 77829.6 4542.06 77948.7 4317.69 77948.7 4090.53 C 77948.7 3868.91 77810.2 3650.06 77657.9 3478.31 L 77126 2885.5 C 77095.5 2855.03 77095.5 2849.48 77095.5 2783 L 78123.3 2783 L 78200.8 3265.02 L 78131.6 3265.02 C 78117.7 3181.91 78098.3 3060.02 78070.6 3018.47 C 78051.2 2996.3 77868.4 2996.3 77807.5 2996.3 L 77308.8 2996.3 "/>
<path transform="matrix(.00359712,0,0,-.00359712,0,51.48)" d="M 79126.1 3386.91 C 79126.1 3838.44 79353.3 3954.8 79500.1 3954.8 C 79525 3954.8 79699.5 3952.02 79796.5 3852.3 C 79682.9 3843.98 79666.3 3760.88 79666.3 3724.86 C 79666.3 3652.84 79716.2 3597.44 79793.7 3597.44 C 79865.8 3597.44 79921.2 3644.53 79921.2 3727.64 C 79921.2 3916 79710.6 4024.05 79497.3 4024.05 C 79151 4024.05 78896.2 3724.86 78896.2 3381.36 C 78896.2 3026.78 79170.4 2752.53 79491.8 2752.53 C 79863 2752.53 79951.6 3084.95 79951.6 3112.66 C 79951.6 3140.36 79923.9 3140.36 79915.6 3140.36 C 79890.7 3140.36 79885.1 3129.28 79879.6 3112.66 C 79799.3 2855.03 79619.2 2821.78 79516.7 2821.78 C 79369.9 2821.78 79126.1 2940.91 79126.1 3386.91 "/>
<path transform="matrix(.00359712,0,0,-.00359712,0,51.48)" d="M 81336.8 3375.81 C 81336.8 3730.41 81059.7 4024.05 80724.5 4024.05 C 80378.3 4024.05 80109.6 3722.09 80109.6 3375.81 C 80109.6 3018.47 80397.7 2752.53 80721.8 2752.53 C 81057 2752.53 81336.8 3024 81336.8 3375.81 Z M 80724.5 2821.78 C 80605.4 2821.78 80483.5 2879.95 80408.8 3007.39 C 80339.5 3129.28 80339.5 3298.25 80339.5 3397.98 C 80339.5 3506.02 80339.5 3655.61 80406 3777.5 C 80480.8 3904.92 80611 3963.09 80721.8 3963.09 C 80843.7 3963.09 80962.8 3902.16 81034.8 3783.03 C 81106.8 3663.92 81106.8 3503.25 81106.8 3397.98 C 81106.8 3298.25 81106.8 3148.67 81045.9 3026.78 C 80984.9 2902.13 80863.1 2821.78 80724.5 2821.78 "/>
<path transform="matrix(.00359712,0,0,-.00359712,0,51.48)" d="M 81992.2 3320.42 C 82053.1 3309.33 82280.3 3265.02 82280.3 3065.56 C 82280.3 2924.28 82183.3 2813.47 81967.3 2813.47 C 81734.6 2813.47 81634.8 2971.38 81582.2 3206.84 C 81573.9 3242.84 81571.1 3253.94 81543.4 3253.94 C 81507.4 3253.94 81507.4 3234.55 81507.4 3184.67 L 81507.4 2819.02 C 81507.4 2771.92 81507.4 2752.53 81537.9 2752.53 C 81551.7 2752.53 81554.5 2755.3 81607.1 2807.94 C 81612.7 2813.47 81612.7 2819.02 81662.5 2871.64 C 81784.4 2755.3 81909.1 2752.53 81967.3 2752.53 C 82285.8 2752.53 82413.3 2938.13 82413.3 3137.58 C 82413.3 3284.41 82330.2 3367.52 82296.9 3400.75 C 82205.5 3489.39 82097.5 3511.56 81981.1 3533.72 C 81826 3564.19 81640.4 3600.2 81640.4 3760.88 C 81640.4 3857.83 81712.4 3971.41 81950.6 3971.41 C 82255.4 3971.41 82269.2 3722.09 82274.8 3636.22 C 82277.5 3611.28 82302.5 3611.28 82308 3611.28 C 82344 3611.28 82344 3625.14 82344 3677.77 L 82344 3957.56 C 82344 4004.66 82344 4024.05 82313.5 4024.05 C 82299.7 4024.05 82294.2 4024.05 82258.1 3990.8 C 82249.8 3979.72 82222.1 3954.8 82211 3946.48 C 82105.8 4024.05 81992.2 4024.05 81950.6 4024.05 C 81612.7 4024.05 81507.4 3838.44 81507.4 3683.31 C 81507.4 3586.36 81551.7 3508.8 81626.5 3447.84 C 81715.2 3375.81 81792.8 3359.2 81992.2 3320.42 "/>
<path transform="matrix(.00359712,0,0,-.00359712,0,51.48)" d="M 83708.1 3816.28 L 84021.1 3816.28 C 83929.7 3406.3 83904.8 3287.17 83904.8 3101.58 C 83904.8 3060.02 83904.8 2985.22 83926.9 2891.03 C 83954.6 2769.16 83985.1 2752.53 84026.7 2752.53 C 84082.1 2752.53 84140.3 2802.39 84140.3 2857.8 C 84140.3 2874.42 84140.3 2879.95 84123.6 2918.73 C 84043.3 3118.19 84043.3 3298.25 84043.3 3375.81 C 84043.3 3522.64 84062.7 3672.23 84093.2 3816.28 L 84409 3816.28 C 84445 3816.28 84544.7 3816.28 84544.7 3910.47 C 84544.7 3976.95 84486.5 3976.95 84433.9 3976.95 L 83505.9 3976.95 C 83444.9 3976.95 83339.7 3976.95 83217.8 3846.75 C 83120.8 3738.72 83048.8 3611.28 83048.8 3597.44 C 83048.8 3594.67 83048.8 3569.73 83082 3569.73 C 83104.2 3569.73 83109.7 3580.81 83126.4 3602.97 C 83262.1 3816.28 83422.8 3816.28 83478.2 3816.28 L 83636.1 3816.28 C 83547.4 3481.09 83397.8 3145.89 83281.5 2893.81 C 83259.3 2852.25 83259.3 2846.72 83259.3 2827.33 C 83259.3 2774.69 83303.7 2752.53 83339.7 2752.53 C 83422.8 2752.53 83444.9 2830.09 83478.2 2932.59 C 83517 3060.02 83517 3065.56 83553 3204.06 L 83708.1 3816.28 "/>
<path transform="matrix(.00359712,0,0,-.00359712,0,51.48)" d="M 85452.6 3475.55 C 85452.6 3691.63 85422.1 4026.81 85269.8 4339.84 C 85103.5 4680.58 84865.3 4860.64 84837.6 4860.64 C 84821 4860.64 84809.9 4849.56 84809.9 4832.94 C 84809.9 4824.63 84809.9 4819.09 84862.5 4769.22 C 85134 4494.97 85291.9 4054.52 85291.9 3475.55 C 85291.9 3001.84 85189.4 2514.3 84845.9 2165.25 C 84809.9 2132 84809.9 2126.47 84809.9 2118.16 C 84809.9 2101.53 84821 2090.45 84837.6 2090.45 C 84865.3 2090.45 85114.6 2278.83 85278.1 2630.64 C 85419.3 2935.36 85452.6 3242.84 85452.6 3475.55 "/>
</g>
</svg>
