<?xml version="1.0" encoding="UTF-8" standalone="no"?>
<!DOCTYPE svg PUBLIC "-//W3C//DTD SVG 1.1//EN" "http://www.w3.org/Graphics/SVG/1.1/DTD/svg11.dtd">
<svg xmlns="http://www.w3.org/2000/svg" xmlns:xlink="http://www.w3.org/1999/xlink" version="1.1" width="94.79pt" height="10.94pt" viewBox="0 0 94.79 10.94">
<g enable-background="new">
<path transform="matrix(.00359712,0,0,-.00359712,0,10.94)" d="M 164.781 853.438 C 156.469 811.891 139.844 748.172 139.844 734.328 C 139.844 684.453 178.625 659.531 220.188 659.531 C 253.422 659.531 303.281 681.688 322.672 737.094 C 325.453 742.641 358.688 872.828 375.313 942.094 L 436.25 1191.41 C 452.875 1252.34 469.5 1313.3 483.344 1377 C 494.422 1424.09 516.594 1504.44 519.359 1515.52 C 560.906 1601.39 707.734 1853.48 970.906 1853.48 C 1095.56 1853.48 1120.48 1750.98 1120.48 1659.56 C 1120.48 1590.31 1101.09 1512.75 1078.94 1429.64 L 1001.38 1108.3 L 945.969 897.766 C 934.891 842.359 909.953 748.172 909.953 734.328 C 909.953 684.453 948.734 659.531 990.297 659.531 C 1076.17 659.531 1092.8 728.781 1114.95 817.422 C 1153.73 972.563 1256.23 1377 1281.16 1485.05 C 1289.47 1521.06 1436.3 1853.48 1738.25 1853.48 C 1857.36 1853.48 1887.83 1759.3 1887.83 1659.56 C 1887.83 1501.67 1771.48 1185.86 1716.08 1039.05 C 1691.16 972.563 1680.06 942.094 1680.06 886.688 C 1680.06 756.484 1777.03 659.531 1907.22 659.531 C 2167.63 659.531 2270.13 1063.97 2270.13 1086.14 C 2270.13 1113.84 2245.19 1113.84 2236.88 1113.84 C 2209.17 1113.84 2209.17 1105.53 2195.33 1063.97 C 2153.77 917.156 2065.13 720.469 1912.77 720.469 C 1865.67 720.469 1846.28 748.172 1846.28 811.891 C 1846.28 881.141 1871.22 947.625 1896.14 1008.58 C 1948.78 1152.63 2065.13 1460.11 2065.13 1618.02 C 2065.13 1798.08 1954.31 1914.42 1746.55 1914.42 C 1538.8 1914.42 1397.52 1792.53 1295.02 1645.72 C 1292.25 1681.73 1283.94 1775.91 1206.36 1842.39 C 1137.11 1900.58 1048.47 1914.42 979.219 1914.42 C 729.891 1914.42 594.156 1737.13 547.063 1673.42 C 533.219 1831.31 416.859 1914.42 292.203 1914.42 C 164.781 1914.42 112.141 1806.39 87.2188 1756.52 C 37.3438 1659.56 1.32813 1496.13 1.32813 1487.81 C 1.32813 1460.11 29.0313 1460.11 34.5781 1460.11 C 62.2813 1460.11 65.0469 1462.88 81.6719 1523.83 C 128.766 1720.52 184.172 1853.48 283.891 1853.48 C 328.219 1853.48 369.766 1831.31 369.766 1726.05 C 369.766 1667.88 361.453 1637.41 325.453 1493.36 L 164.781 853.438 "/>
<path transform="matrix(.00359712,0,0,-.00359712,0,10.94)" d="M 2959.81 2983.3 C 2961.75 2987.17 2967.56 3012.38 2967.56 3014.31 C 2967.56 3024.02 2959.81 3041.45 2936.55 3041.45 C 2897.78 3041.45 2736.86 3025.95 2688.39 3022.08 C 2672.89 3020.13 2645.75 3018.19 2645.75 2977.48 C 2645.75 2950.34 2672.89 2950.34 2696.16 2950.34 C 2789.2 2950.34 2789.2 2936.77 2789.2 2921.27 C 2789.2 2907.69 2785.33 2896.06 2781.45 2878.61 L 2508.09 1781.3 C 2498.41 1746.41 2498.41 1742.53 2498.41 1738.66 C 2498.41 1709.58 2521.67 1676.61 2564.31 1676.61 C 2616.66 1676.61 2641.86 1715.39 2653.5 1758.03 C 2657.38 1765.8 2740.73 2107 2748.5 2134.14 C 2886.14 2120.58 2996.66 2075.98 2996.66 1975.17 C 2996.66 1965.48 2996.66 1955.78 2992.77 1936.41 C 2985.02 1907.31 2985.02 1897.63 2985.02 1876.3 C 2985.02 1738.66 3097.47 1676.61 3190.52 1676.61 C 3378.58 1676.61 3436.73 1971.3 3436.73 1973.23 C 3436.73 1998.44 3411.53 1998.44 3405.72 1998.44 C 3378.58 1998.44 3376.64 1988.75 3366.94 1951.91 C 3343.67 1868.55 3291.33 1730.89 3196.33 1730.89 C 3143.98 1730.89 3128.48 1779.36 3128.48 1831.7 C 3128.48 1864.67 3128.48 1868.55 3140.11 1918.95 C 3142.05 1924.77 3149.81 1957.72 3149.81 1979.05 C 3149.81 2151.59 2917.16 2178.73 2835.73 2184.55 C 2891.95 2219.45 2963.69 2283.42 2996.66 2312.5 C 3095.52 2405.56 3192.45 2496.69 3301.03 2496.69 C 3324.28 2496.69 3349.48 2490.88 3365 2471.48 C 3281.64 2457.91 3264.19 2392 3264.19 2362.91 C 3264.19 2320.27 3297.14 2291.19 3341.73 2291.19 C 3394.08 2291.19 3452.25 2333.83 3452.25 2415.27 C 3452.25 2479.23 3405.72 2550.97 3302.97 2550.97 C 3192.45 2550.97 3091.64 2471.48 2992.77 2380.36 C 2911.34 2302.81 2847.38 2242.72 2767.88 2209.75 L 2959.81 2983.3 "/>
<path transform="matrix(.00359712,0,0,-.00359712,0,10.94)" d="M 4080.41 2297.55 C 4080.41 2339.03 4076.27 2339.03 4030.63 2339.03 C 3932.44 2250.53 3778.92 2250.53 3751.27 2250.53 L 3727.77 2250.53 L 3727.77 2189.69 L 3751.27 2189.69 C 3783.08 2189.69 3872.97 2193.83 3953.17 2228.41 L 3953.17 1536.94 C 3953.17 1494.06 3953.17 1478.84 3806.59 1478.84 L 3737.44 1478.84 L 3737.44 1418 C 3813.5 1423.53 3936.58 1423.53 4016.8 1423.53 C 4097 1423.53 4220.09 1423.53 4296.16 1418 L 4296.16 1478.84 L 4227 1478.84 C 4080.41 1478.84 4080.41 1494.06 4080.41 1536.94 L 4080.41 2297.55 "/>
<path transform="matrix(.00359712,0,0,-.00359712,0,10.94)" d="M 5051.08 2180.67 C 5051.08 2250.47 4992.92 2293.13 4940.58 2293.13 C 4876.61 2293.13 4828.14 2240.78 4828.14 2182.61 C 4828.14 2112.83 4886.3 2070.17 4938.64 2070.17 C 5002.63 2070.17 5051.08 2122.52 5051.08 2180.67 "/>
<path transform="matrix(.00359712,0,0,-.00359712,0,10.94)" d="M 5875.81 2983.3 C 5877.75 2987.17 5883.56 3012.38 5883.56 3014.31 C 5883.56 3024.02 5875.81 3041.45 5852.55 3041.45 C 5813.78 3041.45 5652.86 3025.95 5604.39 3022.08 C 5588.89 3020.13 5561.75 3018.19 5561.75 2977.48 C 5561.75 2950.34 5588.89 2950.34 5612.16 2950.34 C 5705.2 2950.34 5705.2 2936.77 5705.2 2921.27 C 5705.2 2907.69 5701.33 2896.06 5697.45 2878.61 L 5424.09 1781.3 C 5414.41 1746.41 5414.41 1742.53 5414.41 1738.66 C 5414.41 1709.58 5437.67 1676.61 5480.31 1676.61 C 5532.66 1676.61 5557.86 1715.39 5569.5 1758.03 C 5573.38 1765.8 5656.73 2107 5664.5 2134.14 C 5802.14 2120.58 5912.66 2075.98 5912.66 1975.17 C 5912.66 1965.48 5912.66 1955.78 5908.77 1936.41 C 5901.02 1907.31 5901.02 1897.63 5901.02 1876.3 C 5901.02 1738.66 6013.47 1676.61 6106.52 1676.61 C 6294.58 1676.61 6352.73 1971.3 6352.73 1973.23 C 6352.73 1998.44 6327.53 1998.44 6321.72 1998.44 C 6294.58 1998.44 6292.64 1988.75 6282.94 1951.91 C 6259.67 1868.55 6207.33 1730.89 6112.33 1730.89 C 6059.98 1730.89 6044.48 1779.36 6044.48 1831.7 C 6044.48 1864.67 6044.48 1868.55 6056.11 1918.95 C 6058.05 1924.77 6065.81 1957.72 6065.81 1979.05 C 6065.81 2151.59 5833.16 2178.73 5751.73 2184.55 C 5807.95 2219.45 5879.69 2283.42 5912.66 2312.5 C 6011.52 2405.56 6108.45 2496.69 6217.03 2496.69 C 6240.28 2496.69 6265.48 2490.88 6281 2471.48 C 6197.64 2457.91 6180.19 2392 6180.19 2362.91 C 6180.19 2320.27 6213.14 2291.19 6257.73 2291.19 C 6310.08 2291.19 6368.25 2333.83 6368.25 2415.27 C 6368.25 2479.23 6321.72 2550.97 6218.97 2550.97 C 6108.45 2550.97 6007.64 2471.48 5908.77 2380.36 C 5827.34 2302.81 5763.38 2242.72 5683.88 2209.75 L 5875.81 2983.3 "/>
<path transform="matrix(.00359712,0,0,-.00359712,0,10.94)" d="M 7260.55 1684.91 L 7202.47 1684.91 C 7198.31 1658.63 7184.48 1572.89 7162.36 1559.06 C 7151.3 1550.77 7035.13 1550.77 7014.39 1550.77 L 6743.33 1550.77 C 6834.61 1618.53 6936.94 1695.97 7019.92 1751.28 C 7144.39 1837.03 7260.55 1917.23 7260.55 2063.83 C 7260.55 2240.84 7093.22 2339.03 6895.45 2339.03 C 6708.77 2339.03 6571.84 2231.17 6571.84 2095.64 C 6571.84 2023.73 6632.7 2011.28 6652.06 2011.28 C 6689.39 2011.28 6733.66 2036.17 6733.66 2092.88 C 6733.66 2142.66 6697.69 2170.31 6654.83 2174.47 C 6693.55 2236.7 6773.75 2278.19 6866.41 2278.19 C 7000.56 2278.19 7112.58 2197.98 7112.58 2062.45 C 7112.58 1946.28 7032.36 1857.78 6925.88 1767.89 L 6588.44 1481.61 C 6574.61 1469.17 6573.23 1469.17 6571.84 1459.48 L 6571.84 1418 L 7214.92 1418 L 7260.55 1684.91 "/>
<path transform="matrix(.00359712,0,0,-.00359712,0,10.94)" d="M 10338.1 1595.84 C 10379.7 1595.84 10432.3 1595.84 10432.3 1651.25 C 10432.3 1706.66 10379.7 1706.66 10340.9 1706.66 L 8681.55 1706.66 C 8642.77 1706.66 8590.13 1706.66 8590.13 1651.25 C 8590.13 1595.84 8642.77 1595.84 8684.31 1595.84 L 10338.1 1595.84 Z M 10340.9 1058.44 C 10379.7 1058.44 10432.3 1058.44 10432.3 1113.84 C 10432.3 1169.25 10379.7 1169.25 10338.1 1169.25 L 8684.31 1169.25 C 8642.77 1169.25 8590.13 1169.25 8590.13 1113.84 C 8590.13 1058.44 8642.77 1058.44 8681.55 1058.44 L 10340.9 1058.44 "/>
<path transform="matrix(.00359712,0,0,-.00359712,0,10.94)" d="M 11602.8 853.438 C 11594.5 811.891 11577.8 748.172 11577.8 734.328 C 11577.8 684.453 11616.6 659.531 11658.2 659.531 C 11691.4 659.531 11741.3 681.688 11760.7 737.094 C 11763.5 742.641 11796.7 872.828 11813.3 942.094 L 11874.3 1191.41 C 11890.9 1252.34 11907.5 1313.3 11921.3 1377 C 11932.4 1424.09 11954.6 1504.44 11957.4 1515.52 C 11998.9 1601.39 12145.7 1853.48 12408.9 1853.48 C 12533.6 1853.48 12558.5 1750.98 12558.5 1659.56 C 12558.5 1590.31 12539.1 1512.75 12516.9 1429.64 L 12439.4 1108.3 L 12384 897.766 C 12372.9 842.359 12348 748.172 12348 734.328 C 12348 684.453 12386.7 659.531 12428.3 659.531 C 12514.2 659.531 12530.8 728.781 12553 817.422 C 12591.7 972.563 12694.2 1377 12719.2 1485.05 C 12727.5 1521.06 12874.3 1853.48 13176.3 1853.48 C 13295.4 1853.48 13325.8 1759.3 13325.8 1659.56 C 13325.8 1501.67 13209.5 1185.86 13154.1 1039.05 C 13129.2 972.563 13118.1 942.094 13118.1 886.688 C 13118.1 756.484 13215 659.531 13345.2 659.531 C 13605.6 659.531 13708.1 1063.97 13708.1 1086.14 C 13708.1 1113.84 13683.2 1113.84 13674.9 1113.84 C 13647.2 1113.84 13647.2 1105.53 13633.3 1063.97 C 13591.8 917.156 13503.1 720.469 13350.8 720.469 C 13303.7 720.469 13284.3 748.172 13284.3 811.891 C 13284.3 881.141 13309.2 947.625 13334.1 1008.58 C 13386.8 1152.63 13503.1 1460.11 13503.1 1618.02 C 13503.1 1798.08 13392.3 1914.42 13184.5 1914.42 C 12976.8 1914.42 12835.5 1792.53 12733 1645.72 C 12730.3 1681.73 12721.9 1775.91 12644.4 1842.39 C 12575.1 1900.58 12486.5 1914.42 12417.2 1914.42 C 12167.9 1914.42 12032.2 1737.13 11985.1 1673.42 C 11971.2 1831.31 11854.9 1914.42 11730.2 1914.42 C 11602.8 1914.42 11550.1 1806.39 11525.2 1756.52 C 11475.3 1659.56 11439.3 1496.13 11439.3 1487.81 C 11439.3 1460.11 11467 1460.11 11472.6 1460.11 C 11500.3 1460.11 11503 1462.88 11519.7 1523.83 C 11566.8 1720.52 11622.2 1853.48 11721.9 1853.48 C 11766.2 1853.48 11807.8 1831.31 11807.8 1726.05 C 11807.8 1667.88 11799.5 1637.41 11763.5 1493.36 L 11602.8 853.438 "/>
<path transform="matrix(.00359712,0,0,-.00359712,0,10.94)" d="M 14937.9 1382.55 C 14937.9 1462.88 14871.4 1529.36 14791.1 1529.36 C 14710.7 1529.36 14644.2 1462.88 14644.2 1382.55 C 14644.2 1302.22 14710.7 1235.73 14791.1 1235.73 C 14871.4 1235.73 14937.9 1302.22 14937.9 1382.55 "/>
<path transform="matrix(.00359712,0,0,-.00359712,0,10.94)" d="M 16707.9 25.1563 C 16707.9 33.4688 16707.9 39 16660.8 86.0938 C 16314.6 435.141 16225.9 958.703 16225.9 1382.55 C 16225.9 1864.56 16331.2 2346.58 16671.9 2692.84 C 16707.9 2726.09 16707.9 2731.63 16707.9 2739.94 C 16707.9 2759.33 16696.8 2767.64 16680.2 2767.64 C 16652.5 2767.64 16403.2 2579.27 16239.8 2227.45 C 16098.5 1922.73 16065.3 1615.25 16065.3 1382.55 C 16065.3 1166.47 16095.7 831.281 16248.1 518.25 C 16414.3 177.516 16652.5 -2.54688 16680.2 -2.54688 C 16696.8 -2.54688 16707.9 5.76563 16707.9 25.1563 "/>
<path transform="matrix(.00359712,0,0,-.00359712,0,10.94)" d="M 17111.8 853.438 C 17103.5 811.891 17086.8 748.172 17086.8 734.328 C 17086.8 684.453 17125.6 659.531 17167.2 659.531 C 17200.4 659.531 17250.3 681.688 17269.7 737.094 C 17272.5 742.641 17305.7 872.828 17322.3 942.094 L 17383.3 1191.41 C 17399.9 1252.34 17416.5 1313.3 17430.3 1377 C 17441.4 1424.09 17463.6 1504.44 17466.4 1515.52 C 17507.9 1601.39 17654.7 1853.48 17917.9 1853.48 C 18042.6 1853.48 18067.5 1750.98 18067.5 1659.56 C 18067.5 1590.31 18048.1 1512.75 18025.9 1429.64 L 17948.4 1108.3 L 17893 897.766 C 17881.9 842.359 17857 748.172 17857 734.328 C 17857 684.453 17895.7 659.531 17937.3 659.531 C 18023.2 659.531 18039.8 728.781 18062 817.422 C 18100.7 972.563 18203.2 1377 18228.2 1485.05 C 18236.5 1521.06 18383.3 1853.48 18685.3 1853.48 C 18804.4 1853.48 18834.8 1759.3 18834.8 1659.56 C 18834.8 1501.67 18718.5 1185.86 18663.1 1039.05 C 18638.2 972.563 18627.1 942.094 18627.1 886.688 C 18627.1 756.484 18724 659.531 18854.2 659.531 C 19114.6 659.531 19217.1 1063.97 19217.1 1086.14 C 19217.1 1113.84 19192.2 1113.84 19183.9 1113.84 C 19156.2 1113.84 19156.2 1105.53 19142.3 1063.97 C 19100.8 917.156 19012.1 720.469 18859.8 720.469 C 18812.7 720.469 18793.3 748.172 18793.3 811.891 C 18793.3 881.141 18818.2 947.625 18843.1 1008.58 C 18895.8 1152.63 19012.1 1460.11 19012.1 1618.02 C 19012.1 1798.08 18901.3 1914.42 18693.5 1914.42 C 18485.8 1914.42 18344.5 1792.53 18242 1645.72 C 18239.3 1681.73 18230.9 1775.91 18153.4 1842.39 C 18084.1 1900.58 17995.5 1914.42 17926.2 1914.42 C 17676.9 1914.42 17541.2 1737.13 17494.1 1673.42 C 17480.2 1831.31 17363.9 1914.42 17239.2 1914.42 C 17111.8 1914.42 17059.1 1806.39 17034.2 1756.52 C 16984.3 1659.56 16948.3 1496.13 16948.3 1487.81 C 16948.3 1460.11 16976 1460.11 16981.6 1460.11 C 17009.3 1460.11 17012 1462.88 17028.7 1523.83 C 17075.8 1720.52 17131.2 1853.48 17230.9 1853.48 C 17275.2 1853.48 17316.8 1831.31 17316.8 1726.05 C 17316.8 1667.88 17308.5 1637.41 17272.5 1493.36 L 17111.8 853.438 "/>
<path transform="matrix(.00359712,0,0,-.00359712,0,10.94)" d="M 19444.4 1459.48 C 19430.8 1405.19 19427 1389.69 19349.4 1389.69 C 19324.2 1389.69 19297.1 1389.69 19297.1 1348.97 C 19297.1 1327.64 19314.5 1319.89 19324.2 1319.89 C 19374.6 1319.89 19438.6 1327.64 19490.9 1327.64 C 19556.8 1327.64 19630.5 1319.89 19694.5 1319.89 C 19711.9 1319.89 19733.3 1325.7 19733.3 1362.55 C 19733.3 1389.69 19706.1 1389.69 19682.9 1389.69 C 19640.2 1389.69 19587.9 1389.69 19587.9 1412.95 C 19587.9 1422.64 19601.4 1473.05 19609.2 1502.13 C 19632.5 1604.88 19659.6 1709.58 19680.9 1791 C 19704.2 1752.22 19764.3 1676.61 19880.6 1676.61 C 20117.1 1676.61 20378.9 1938.34 20378.9 2227.2 C 20378.9 2454.03 20221.8 2550.97 20088 2550.97 C 19967.9 2550.97 19865.1 2469.55 19812.8 2415.27 C 19779.8 2525.77 19671.2 2550.97 19613.1 2550.97 C 19537.5 2550.97 19490.9 2500.56 19459.9 2448.22 C 19421.1 2382.3 19390.1 2265.98 19390.1 2254.34 C 19390.1 2229.14 19417.3 2229.14 19423.1 2229.14 C 19450.2 2229.14 19452.2 2234.95 19465.7 2287.3 C 19494.8 2399.75 19531.6 2496.69 19607.3 2496.69 C 19657.7 2496.69 19671.2 2454.03 19671.2 2401.69 C 19671.2 2380.36 19667.4 2355.16 19665.4 2343.53 L 19444.4 1459.48 Z M 19810.8 2318.33 C 19923.3 2467.61 20020.2 2496.69 20082.2 2496.69 C 20157.8 2496.69 20223.8 2440.47 20223.8 2308.63 C 20223.8 2229.14 20181.1 2031.39 20123 1918.95 C 20074.5 1823.95 19979.5 1730.89 19880.6 1730.89 C 19743 1730.89 19708.1 1880.17 19708.1 1899.56 C 19708.1 1907.31 19711.9 1920.89 19713.9 1928.64 L 19810.8 2318.33 "/>
<path transform="matrix(.00359712,0,0,-.00359712,0,10.94)" d="M 21883.4 2134.14 C 21914.4 2134.14 21960.9 2134.14 21960.9 2180.67 C 21960.9 2229.14 21916.3 2229.14 21883.4 2229.14 L 20727.9 2229.14 C 20696.9 2229.14 20650.4 2229.14 20650.4 2182.61 C 20650.4 2134.14 20695 2134.14 20727.9 2134.14 L 21883.4 2134.14 "/>
<path transform="matrix(.00359712,0,0,-.00359712,0,10.94)" d="M 22821.5 2929.02 C 22821.5 2981.36 22817.6 2983.3 22763.3 2983.3 C 22639.2 2861.16 22462.8 2859.22 22383.3 2859.22 L 22383.3 2789.42 C 22429.8 2789.42 22557.8 2789.42 22664.4 2843.7 L 22664.4 1854.97 C 22664.4 1791 22664.4 1765.8 22470.6 1765.8 L 22396.9 1765.8 L 22396.9 1696 C 22431.8 1697.94 22670.3 1703.75 22742 1703.75 C 22802.1 1703.75 23046.4 1697.94 23089 1696 L 23089 1765.8 L 23015.3 1765.8 C 22821.5 1765.8 22821.5 1791 22821.5 1854.97 L 22821.5 2929.02 "/>
<path transform="matrix(.00359712,0,0,-.00359712,0,10.94)" d="M 24215.6 1382.55 C 24215.6 1598.63 24185.1 1933.81 24032.8 2246.84 C 23866.5 2587.58 23628.3 2767.64 23600.6 2767.64 C 23584 2767.64 23572.9 2756.56 23572.9 2739.94 C 23572.9 2731.63 23572.9 2726.09 23625.5 2676.22 C 23897 2401.97 24054.9 1961.52 24054.9 1382.55 C 24054.9 908.844 23952.4 421.297 23608.9 72.25 C 23572.9 39 23572.9 33.4688 23572.9 25.1563 C 23572.9 8.53125 23584 -2.54688 23600.6 -2.54688 C 23628.3 -2.54688 23877.6 185.828 24041.1 537.641 C 24182.3 842.359 24215.6 1149.84 24215.6 1382.55 "/>
<path transform="matrix(.00359712,0,0,-.00359712,0,10.94)" d="M 26108.9 2808.81 C 26128.3 2882.48 26159.3 2946.47 26314.4 2950.34 C 26324.1 2950.34 26353.2 2952.28 26353.2 2992.98 C 26353.2 3004.63 26343.5 3020.13 26324.1 3020.13 C 26260.1 3020.13 26188.4 3012.38 26122.5 3012.38 C 26075.9 3012.38 25963.5 3020.13 25916.9 3020.13 C 25907.3 3020.13 25878.2 3020.13 25878.2 2977.48 C 25878.2 2952.28 25903.4 2950.34 25920.8 2950.34 C 26011.9 2948.41 26044.9 2919.31 26044.9 2870.86 C 26044.9 2855.34 26043 2845.66 26037.1 2824.33 L 25825.8 1979.05 L 25333.4 2987.17 C 25317.9 3020.13 25314 3020.13 25267.5 3020.13 L 25001.9 3020.13 C 24965 3020.13 24939.8 3020.13 24939.8 2977.48 C 24939.8 2950.34 24963.1 2950.34 25003.8 2950.34 C 25044.5 2950.34 25087.2 2948.41 25127.9 2940.64 L 24868.1 1903.44 C 24850.7 1829.77 24817.7 1771.61 24666.5 1765.8 C 24652.9 1765.8 24625.8 1763.86 24625.8 1725.08 C 24625.8 1703.75 24641.3 1696 24654.8 1696 C 24718.8 1696 24790.6 1703.75 24856.5 1703.75 C 24903 1703.75 25015.5 1696 25062 1696 C 25081.4 1696 25100.8 1705.69 25100.8 1736.72 C 25100.8 1763.86 25077.5 1765.8 25056.2 1765.8 C 24934 1769.67 24934 1820.08 24934 1847.22 C 24934 1854.97 24934 1864.67 24941.8 1895.69 L 25189.9 2888.3 L 25756 1728.95 C 25771.5 1697.94 25779.3 1696 25798.7 1696 C 25829.7 1696 25829.7 1701.81 25839.4 1736.72 L 26108.9 2808.81 "/>
</g>
</svg>
