<?xml version="1.0" encoding="UTF-8" standalone="no"?>
<!DOCTYPE svg PUBLIC "-//W3C//DTD SVG 1.1//EN" "http://www.w3.org/Graphics/SVG/1.1/DTD/svg11.dtd">
<svg xmlns="http://www.w3.org/2000/svg" xmlns:xlink="http://www.w3.org/1999/xlink" version="1.1" width="117.14pt" height="10.87pt" viewBox="0 0 117.14 10.87">
<g enable-background="new">
<path transform="matrix(.00359712,0,0,-.00359712,0,10.87)" d="M 164.781 853.438 C 156.469 811.891 139.844 748.172 139.844 734.328 C 139.844 684.453 178.625 659.531 220.188 659.531 C 253.422 659.531 303.281 681.688 322.672 737.094 C 325.453 742.641 358.688 872.828 375.313 942.094 L 436.25 1191.41 C 452.875 1252.34 469.5 1313.3 483.344 1377 C 494.422 1424.09 516.594 1504.44 519.359 1515.52 C 560.906 1601.39 707.734 1853.48 970.906 1853.48 C 1095.56 1853.48 1120.48 1750.98 1120.48 1659.56 C 1120.48 1590.31 1101.09 1512.75 1078.94 1429.64 L 1001.38 1108.3 L 945.969 897.766 C 934.891 842.359 909.953 748.172 909.953 734.328 C 909.953 684.453 948.734 659.531 990.297 659.531 C 1076.17 659.531 1092.8 728.781 1114.95 817.422 C 1153.73 972.563 1256.23 1377 1281.16 1485.05 C 1289.47 1521.06 1436.3 1853.48 1738.25 1853.48 C 1857.36 1853.48 1887.83 1759.3 1887.83 1659.56 C 1887.83 1501.67 1771.48 1185.86 1716.08 1039.05 C 1691.16 972.563 1680.06 942.094 1680.06 886.688 C 1680.06 756.484 1777.03 659.531 1907.22 659.531 C 2167.63 659.531 2270.13 1063.97 2270.13 1086.14 C 2270.13 1113.84 2245.19 1113.84 2236.88 1113.84 C 2209.17 1113.84 2209.17 1105.53 2195.33 1063.97 C 2153.77 917.156 2065.13 720.469 1912.77 720.469 C 1865.67 720.469 1846.28 748.172 1846.28 811.891 C 1846.28 881.141 1871.22 947.625 1896.14 1008.58 C 1948.78 1152.63 2065.13 1460.11 2065.13 1618.02 C 2065.13 1798.08 1954.31 1914.42 1746.55 1914.42 C 1538.8 1914.42 1397.52 1792.53 1295.02 1645.72 C 1292.25 1681.73 1283.94 1775.91 1206.36 1842.39 C 1137.11 1900.58 1048.47 1914.42 979.219 1914.42 C 729.891 1914.42 594.156 1737.13 547.063 1673.42 C 533.219 1831.31 416.859 1914.42 292.203 1914.42 C 164.781 1914.42 112.141 1806.39 87.2188 1756.52 C 37.3438 1659.56 1.32813 1496.13 1.32813 1487.81 C 1.32813 1460.11 29.0313 1460.11 34.5781 1460.11 C 62.2813 1460.11 65.0469 1462.88 81.6719 1523.83 C 128.766 1720.52 184.172 1853.48 283.891 1853.48 C 328.219 1853.48 369.766 1831.31 369.766 1726.05 C 369.766 1667.88 361.453 1637.41 325.453 1493.36 L 164.781 853.438 "/>
<path transform="matrix(.00359712,0,0,-.00359712,0,10.87)" d="M 3499.88 1382.55 C 3499.88 1462.88 3433.39 1529.36 3353.06 1529.36 C 3272.72 1529.36 3206.23 1462.88 3206.23 1382.55 C 3206.23 1302.22 3272.72 1235.73 3353.06 1235.73 C 3433.39 1235.73 3499.88 1302.22 3499.88 1382.55 "/>
<path transform="matrix(.00359712,0,0,-.00359712,0,10.87)" d="M 5269.94 25.1563 C 5269.94 33.4688 5269.94 39 5222.84 86.0938 C 4876.56 435.141 4787.92 958.703 4787.92 1382.55 C 4787.92 1864.56 4893.19 2346.58 5233.92 2692.84 C 5269.94 2726.09 5269.94 2731.63 5269.94 2739.94 C 5269.94 2759.33 5258.84 2767.64 5242.23 2767.64 C 5214.53 2767.64 4965.22 2579.27 4801.77 2227.45 C 4660.48 1922.73 4627.25 1615.25 4627.25 1382.55 C 4627.25 1166.47 4657.72 831.281 4810.08 518.25 C 4976.3 177.516 5214.53 -2.54688 5242.23 -2.54688 C 5258.84 -2.54688 5269.94 5.76563 5269.94 25.1563 "/>
<path transform="matrix(.00359712,0,0,-.00359712,0,10.87)" d="M 6225.05 2582.03 C 6225.05 2584.81 6225.05 2612.52 6189.03 2612.52 C 6125.31 2612.52 5923.09 2590.34 5851.06 2584.81 C 5828.91 2582.03 5798.44 2579.27 5798.44 2529.41 C 5798.44 2496.16 5823.36 2496.16 5864.92 2496.16 C 5997.89 2496.16 6003.42 2476.77 6003.42 2449.06 L 5995.13 2393.67 L 5593.44 798.031 C 5582.36 759.25 5582.36 753.719 5582.36 737.094 C 5582.36 673.375 5637.77 659.531 5662.7 659.531 C 5698.7 659.531 5740.27 684.453 5756.88 717.703 C 5770.73 742.641 5895.39 1255.13 5912.02 1324.38 C 6006.2 1316.06 6233.36 1271.73 6233.36 1088.91 C 6233.36 1069.52 6233.36 1058.44 6225.05 1030.73 C 6219.5 997.484 6213.97 964.25 6213.97 933.781 C 6213.97 770.328 6324.77 659.531 6468.83 659.531 C 6551.92 659.531 6626.72 703.844 6687.67 806.344 C 6756.92 928.234 6787.39 1080.59 6787.39 1086.14 C 6787.39 1113.84 6762.45 1113.84 6754.16 1113.84 C 6726.45 1113.84 6723.67 1102.77 6715.36 1063.97 C 6659.97 861.75 6596.25 720.469 6474.36 720.469 C 6421.73 720.469 6385.72 750.938 6385.72 850.672 C 6385.72 897.766 6396.8 961.484 6407.88 1005.8 C 6418.95 1052.89 6418.95 1063.97 6418.95 1091.67 C 6418.95 1271.73 6244.44 1352.08 6008.97 1382.55 C 6094.84 1432.41 6183.48 1521.06 6247.2 1587.55 C 6380.17 1734.36 6507.61 1853.48 6643.34 1853.48 C 6659.97 1853.48 6662.73 1853.48 6668.28 1850.7 C 6701.52 1845.17 6704.28 1845.17 6726.45 1828.55 C 6731.98 1825.78 6731.98 1823 6737.53 1817.47 C 6604.56 1809.16 6579.63 1701.13 6579.63 1667.88 C 6579.63 1623.55 6610.09 1570.92 6684.89 1570.92 C 6756.92 1570.92 6837.25 1631.86 6837.25 1739.91 C 6837.25 1823 6773.55 1914.42 6648.88 1914.42 C 6571.31 1914.42 6443.89 1892.27 6244.44 1670.64 C 6150.25 1565.38 6042.22 1454.58 5936.94 1413.02 L 6225.05 2582.03 "/>
<path transform="matrix(.00359712,0,0,-.00359712,0,10.87)" d="M 7521.47 1508.02 C 7521.47 1560.36 7517.59 1562.3 7463.3 1562.3 C 7339.23 1440.16 7162.81 1438.22 7083.31 1438.22 L 7083.31 1368.42 C 7129.84 1368.42 7257.8 1368.42 7364.44 1422.7 L 7364.44 433.969 C 7364.44 370 7364.44 344.797 7170.56 344.797 L 7096.89 344.797 L 7096.89 275 C 7131.78 276.938 7370.25 282.75 7441.98 282.75 C 7502.08 282.75 7746.36 276.938 7789 275 L 7789 344.797 L 7715.33 344.797 C 7521.47 344.797 7521.47 370 7521.47 433.969 L 7521.47 1508.02 "/>
<path transform="matrix(.00359712,0,0,-.00359712,0,10.87)" d="M 9261.88 1382.55 C 9261.88 1462.88 9195.39 1529.36 9115.06 1529.36 C 9034.72 1529.36 8968.23 1462.88 8968.23 1382.55 C 8968.23 1302.22 9034.72 1235.73 9115.06 1235.73 C 9195.39 1235.73 9261.88 1302.22 9261.88 1382.55 "/>
<path transform="matrix(.00359712,0,0,-.00359712,0,10.87)" d="M 10910 2582.03 C 10910 2584.81 10910 2612.52 10874 2612.52 C 10810.3 2612.52 10608.1 2590.34 10536.1 2584.81 C 10513.9 2582.03 10483.4 2579.27 10483.4 2529.41 C 10483.4 2496.16 10508.4 2496.16 10549.9 2496.16 C 10682.9 2496.16 10688.4 2476.77 10688.4 2449.06 L 10680.1 2393.67 L 10278.4 798.031 C 10267.4 759.25 10267.4 753.719 10267.4 737.094 C 10267.4 673.375 10322.8 659.531 10347.7 659.531 C 10383.7 659.531 10425.3 684.453 10441.9 717.703 C 10455.7 742.641 10580.4 1255.13 10597 1324.38 C 10691.2 1316.06 10918.4 1271.73 10918.4 1088.91 C 10918.4 1069.52 10918.4 1058.44 10910 1030.73 C 10904.5 997.484 10899 964.25 10899 933.781 C 10899 770.328 11009.8 659.531 11153.8 659.531 C 11236.9 659.531 11311.7 703.844 11372.7 806.344 C 11441.9 928.234 11472.4 1080.59 11472.4 1086.14 C 11472.4 1113.84 11447.5 1113.84 11439.2 1113.84 C 11411.5 1113.84 11408.7 1102.77 11400.4 1063.97 C 11345 861.75 11281.3 720.469 11159.4 720.469 C 11106.7 720.469 11070.7 750.938 11070.7 850.672 C 11070.7 897.766 11081.8 961.484 11092.9 1005.8 C 11104 1052.89 11104 1063.97 11104 1091.67 C 11104 1271.73 10929.4 1352.08 10694 1382.55 C 10779.8 1432.41 10868.5 1521.06 10932.2 1587.55 C 11065.2 1734.36 11192.6 1853.48 11328.3 1853.48 C 11345 1853.48 11347.7 1853.48 11353.3 1850.7 C 11386.5 1845.17 11389.3 1845.17 11411.5 1828.55 C 11417 1825.78 11417 1823 11422.5 1817.47 C 11289.6 1809.16 11264.6 1701.13 11264.6 1667.88 C 11264.6 1623.55 11295.1 1570.92 11369.9 1570.92 C 11441.9 1570.92 11522.3 1631.86 11522.3 1739.91 C 11522.3 1823 11458.5 1914.42 11333.9 1914.42 C 11256.3 1914.42 11128.9 1892.27 10929.4 1670.64 C 10835.3 1565.38 10727.2 1454.58 10621.9 1413.02 L 10910 2582.03 "/>
<path transform="matrix(.00359712,0,0,-.00359712,0,10.87)" d="M 12536 627.844 L 12470.1 627.844 C 12464.3 585.188 12444.9 470.813 12419.7 451.422 C 12404.2 439.797 12254.9 439.797 12227.8 439.797 L 11871.1 439.797 C 12074.6 620.094 12142.5 674.375 12258.8 765.484 C 12402.3 879.875 12536 1000.08 12536 1184.25 C 12536 1418.83 12330.5 1562.3 12082.4 1562.3 C 11842 1562.3 11679.1 1393.63 11679.1 1215.27 C 11679.1 1116.39 11762.5 1106.7 11781.9 1106.7 C 11828.4 1106.7 11884.6 1139.66 11884.6 1209.45 C 11884.6 1244.34 11871.1 1312.2 11770.3 1312.2 C 11830.4 1449.86 11962.2 1492.5 12053.3 1492.5 C 12247.2 1492.5 12348 1341.28 12348 1184.25 C 12348 1015.58 12227.8 881.813 12165.8 812.016 L 11698.5 350.609 C 11679.1 333.156 11679.1 329.281 11679.1 275 L 12477.9 275 L 12536 627.844 "/>
<path transform="matrix(.00359712,0,0,-.00359712,0,10.87)" d="M 13599.6 1382.55 C 13599.6 1598.63 13569.1 1933.81 13416.8 2246.84 C 13250.5 2587.58 13012.3 2767.64 12984.6 2767.64 C 12968 2767.64 12956.9 2756.56 12956.9 2739.94 C 12956.9 2731.63 12956.9 2726.09 13009.5 2676.22 C 13281 2401.97 13438.9 1961.52 13438.9 1382.55 C 13438.9 908.844 13336.4 421.297 12992.9 72.25 C 12956.9 39 12956.9 33.4688 12956.9 25.1563 C 12956.9 8.53125 12968 -2.54688 12984.6 -2.54688 C 13012.3 -2.54688 13261.6 185.828 13425.1 537.641 C 13566.3 842.359 13599.6 1149.84 13599.6 1382.55 "/>
<path transform="matrix(.00359712,0,0,-.00359712,0,10.87)" d="M 16544.1 1595.84 C 16585.7 1595.84 16638.3 1595.84 16638.3 1651.25 C 16638.3 1706.66 16585.7 1706.66 16546.9 1706.66 L 14887.5 1706.66 C 14848.8 1706.66 14796.1 1706.66 14796.1 1651.25 C 14796.1 1595.84 14848.8 1595.84 14890.3 1595.84 L 16544.1 1595.84 Z M 16546.9 1058.44 C 16585.7 1058.44 16638.3 1058.44 16638.3 1113.84 C 16638.3 1169.25 16585.7 1169.25 16544.1 1169.25 L 14890.3 1169.25 C 14848.8 1169.25 14796.1 1169.25 14796.1 1113.84 C 14796.1 1058.44 14848.8 1058.44 14887.5 1058.44 L 16546.9 1058.44 "/>
<path transform="matrix(.00359712,0,0,-.00359712,0,10.87)" d="M 17812.8 853.438 C 17804.5 811.891 17787.8 748.172 17787.8 734.328 C 17787.8 684.453 17826.6 659.531 17868.2 659.531 C 17901.4 659.531 17951.3 681.688 17970.7 737.094 C 17973.5 742.641 18006.7 872.828 18023.3 942.094 L 18084.3 1191.41 C 18100.9 1252.34 18117.5 1313.3 18131.3 1377 C 18142.4 1424.09 18164.6 1504.44 18167.4 1515.52 C 18208.9 1601.39 18355.7 1853.48 18618.9 1853.48 C 18743.6 1853.48 18768.5 1750.98 18768.5 1659.56 C 18768.5 1590.31 18749.1 1512.75 18726.9 1429.64 L 18649.4 1108.3 L 18594 897.766 C 18582.9 842.359 18558 748.172 18558 734.328 C 18558 684.453 18596.7 659.531 18638.3 659.531 C 18724.2 659.531 18740.8 728.781 18763 817.422 C 18801.7 972.563 18904.2 1377 18929.2 1485.05 C 18937.5 1521.06 19084.3 1853.48 19386.3 1853.48 C 19505.4 1853.48 19535.8 1759.3 19535.8 1659.56 C 19535.8 1501.67 19419.5 1185.86 19364.1 1039.05 C 19339.2 972.563 19328.1 942.094 19328.1 886.688 C 19328.1 756.484 19425 659.531 19555.2 659.531 C 19815.6 659.531 19918.1 1063.97 19918.1 1086.14 C 19918.1 1113.84 19893.2 1113.84 19884.9 1113.84 C 19857.2 1113.84 19857.2 1105.53 19843.3 1063.97 C 19801.8 917.156 19713.1 720.469 19560.8 720.469 C 19513.7 720.469 19494.3 748.172 19494.3 811.891 C 19494.3 881.141 19519.2 947.625 19544.1 1008.58 C 19596.8 1152.63 19713.1 1460.11 19713.1 1618.02 C 19713.1 1798.08 19602.3 1914.42 19394.5 1914.42 C 19186.8 1914.42 19045.5 1792.53 18943 1645.72 C 18940.3 1681.73 18931.9 1775.91 18854.4 1842.39 C 18785.1 1900.58 18696.5 1914.42 18627.2 1914.42 C 18377.9 1914.42 18242.2 1737.13 18195.1 1673.42 C 18181.2 1831.31 18064.9 1914.42 17940.2 1914.42 C 17812.8 1914.42 17760.1 1806.39 17735.2 1756.52 C 17685.3 1659.56 17649.3 1496.13 17649.3 1487.81 C 17649.3 1460.11 17677 1460.11 17682.6 1460.11 C 17710.3 1460.11 17713 1462.88 17729.7 1523.83 C 17776.8 1720.52 17832.2 1853.48 17931.9 1853.48 C 17976.2 1853.48 18017.8 1831.31 18017.8 1726.05 C 18017.8 1667.88 18009.5 1637.41 17973.5 1493.36 L 17812.8 853.438 "/>
<path transform="matrix(.00359712,0,0,-.00359712,0,10.87)" d="M 21147.9 1382.55 C 21147.9 1462.88 21081.4 1529.36 21001.1 1529.36 C 20920.7 1529.36 20854.2 1462.88 20854.2 1382.55 C 20854.2 1302.22 20920.7 1235.73 21001.1 1235.73 C 21081.4 1235.73 21147.9 1302.22 21147.9 1382.55 "/>
<path transform="matrix(.00359712,0,0,-.00359712,0,10.87)" d="M 22917.9 25.1563 C 22917.9 33.4688 22917.9 39 22870.8 86.0938 C 22524.6 435.141 22435.9 958.703 22435.9 1382.55 C 22435.9 1864.56 22541.2 2346.58 22881.9 2692.84 C 22917.9 2726.09 22917.9 2731.63 22917.9 2739.94 C 22917.9 2759.33 22906.8 2767.64 22890.2 2767.64 C 22862.5 2767.64 22613.2 2579.27 22449.8 2227.45 C 22308.5 1922.73 22275.3 1615.25 22275.3 1382.55 C 22275.3 1166.47 22305.7 831.281 22458.1 518.25 C 22624.3 177.516 22862.5 -2.54688 22890.2 -2.54688 C 22906.8 -2.54688 22917.9 5.76563 22917.9 25.1563 "/>
<path transform="matrix(.00359712,0,0,-.00359712,0,10.87)" d="M 23321.8 853.438 C 23313.5 811.891 23296.8 748.172 23296.8 734.328 C 23296.8 684.453 23335.6 659.531 23377.2 659.531 C 23410.4 659.531 23460.3 681.688 23479.7 737.094 C 23482.5 742.641 23515.7 872.828 23532.3 942.094 L 23593.3 1191.41 C 23609.9 1252.34 23626.5 1313.3 23640.3 1377 C 23651.4 1424.09 23673.6 1504.44 23676.4 1515.52 C 23717.9 1601.39 23864.7 1853.48 24127.9 1853.48 C 24252.6 1853.48 24277.5 1750.98 24277.5 1659.56 C 24277.5 1590.31 24258.1 1512.75 24235.9 1429.64 L 24158.4 1108.3 L 24103 897.766 C 24091.9 842.359 24067 748.172 24067 734.328 C 24067 684.453 24105.7 659.531 24147.3 659.531 C 24233.2 659.531 24249.8 728.781 24272 817.422 C 24310.7 972.563 24413.2 1377 24438.2 1485.05 C 24446.5 1521.06 24593.3 1853.48 24895.3 1853.48 C 25014.4 1853.48 25044.8 1759.3 25044.8 1659.56 C 25044.8 1501.67 24928.5 1185.86 24873.1 1039.05 C 24848.2 972.563 24837.1 942.094 24837.1 886.688 C 24837.1 756.484 24934 659.531 25064.2 659.531 C 25324.6 659.531 25427.1 1063.97 25427.1 1086.14 C 25427.1 1113.84 25402.2 1113.84 25393.9 1113.84 C 25366.2 1113.84 25366.2 1105.53 25352.3 1063.97 C 25310.8 917.156 25222.1 720.469 25069.8 720.469 C 25022.7 720.469 25003.3 748.172 25003.3 811.891 C 25003.3 881.141 25028.2 947.625 25053.1 1008.58 C 25105.8 1152.63 25222.1 1460.11 25222.1 1618.02 C 25222.1 1798.08 25111.3 1914.42 24903.5 1914.42 C 24695.8 1914.42 24554.5 1792.53 24452 1645.72 C 24449.3 1681.73 24440.9 1775.91 24363.4 1842.39 C 24294.1 1900.58 24205.5 1914.42 24136.2 1914.42 C 23886.9 1914.42 23751.2 1737.13 23704.1 1673.42 C 23690.2 1831.31 23573.9 1914.42 23449.2 1914.42 C 23321.8 1914.42 23269.1 1806.39 23244.2 1756.52 C 23194.3 1659.56 23158.3 1496.13 23158.3 1487.81 C 23158.3 1460.11 23186 1460.11 23191.6 1460.11 C 23219.3 1460.11 23222 1462.88 23238.7 1523.83 C 23285.8 1720.52 23341.2 1853.48 23440.9 1853.48 C 23485.2 1853.48 23526.8 1831.31 23526.8 1726.05 C 23526.8 1667.88 23518.5 1637.41 23482.5 1493.36 L 23321.8 853.438 "/>
<path transform="matrix(.00359712,0,0,-.00359712,0,10.87)" d="M 25655.4 1459.48 C 25641.8 1405.19 25638 1389.69 25560.4 1389.69 C 25535.2 1389.69 25508.1 1389.69 25508.1 1348.97 C 25508.1 1327.64 25525.5 1319.89 25535.2 1319.89 C 25585.6 1319.89 25649.6 1327.64 25701.9 1327.64 C 25767.8 1327.64 25841.5 1319.89 25905.5 1319.89 C 25922.9 1319.89 25944.3 1325.7 25944.3 1362.55 C 25944.3 1389.69 25917.1 1389.69 25893.9 1389.69 C 25851.2 1389.69 25798.9 1389.69 25798.9 1412.95 C 25798.9 1422.64 25812.4 1473.05 25820.2 1502.13 C 25843.5 1604.88 25870.6 1709.58 25891.9 1791 C 25915.2 1752.22 25975.3 1676.61 26091.6 1676.61 C 26328.1 1676.61 26589.9 1938.34 26589.9 2227.2 C 26589.9 2454.03 26432.8 2550.97 26299 2550.97 C 26178.9 2550.97 26076.1 2469.55 26023.8 2415.27 C 25990.8 2525.77 25882.2 2550.97 25824.1 2550.97 C 25748.5 2550.97 25701.9 2500.56 25670.9 2448.22 C 25632.1 2382.3 25601.1 2265.98 25601.1 2254.34 C 25601.1 2229.14 25628.3 2229.14 25634.1 2229.14 C 25661.2 2229.14 25663.2 2234.95 25676.7 2287.3 C 25705.8 2399.75 25742.6 2496.69 25818.3 2496.69 C 25868.7 2496.69 25882.2 2454.03 25882.2 2401.69 C 25882.2 2380.36 25878.4 2355.16 25876.4 2343.53 L 25655.4 1459.48 Z M 26021.8 2318.33 C 26134.3 2467.61 26231.2 2496.69 26293.2 2496.69 C 26368.8 2496.69 26434.8 2440.47 26434.8 2308.63 C 26434.8 2229.14 26392.1 2031.39 26334 1918.95 C 26285.5 1823.95 26190.5 1730.89 26091.6 1730.89 C 25954 1730.89 25919.1 1880.17 25919.1 1899.56 C 25919.1 1907.31 25922.9 1920.89 25924.9 1928.64 L 26021.8 2318.33 "/>
<path transform="matrix(.00359712,0,0,-.00359712,0,10.87)" d="M 28094.4 2134.14 C 28125.4 2134.14 28171.9 2134.14 28171.9 2180.67 C 28171.9 2229.14 28127.3 2229.14 28094.4 2229.14 L 26938.9 2229.14 C 26907.9 2229.14 26861.4 2229.14 26861.4 2182.61 C 26861.4 2134.14 26906 2134.14 26938.9 2134.14 L 28094.4 2134.14 "/>
<path transform="matrix(.00359712,0,0,-.00359712,0,10.87)" d="M 29032.5 2929.02 C 29032.5 2981.36 29028.6 2983.3 28974.3 2983.3 C 28850.2 2861.16 28673.8 2859.22 28594.3 2859.22 L 28594.3 2789.42 C 28640.8 2789.42 28768.8 2789.42 28875.4 2843.7 L 28875.4 1854.97 C 28875.4 1791 28875.4 1765.8 28681.6 1765.8 L 28607.9 1765.8 L 28607.9 1696 C 28642.8 1697.94 28881.3 1703.75 28953 1703.75 C 29013.1 1703.75 29257.4 1697.94 29300 1696 L 29300 1765.8 L 29226.3 1765.8 C 29032.5 1765.8 29032.5 1791 29032.5 1854.97 L 29032.5 2929.02 "/>
<path transform="matrix(.00359712,0,0,-.00359712,0,10.87)" d="M 30425.6 1382.55 C 30425.6 1598.63 30395.1 1933.81 30242.8 2246.84 C 30076.5 2587.58 29838.3 2767.64 29810.6 2767.64 C 29794 2767.64 29782.9 2756.56 29782.9 2739.94 C 29782.9 2731.63 29782.9 2726.09 29835.5 2676.22 C 30107 2401.97 30264.9 1961.52 30264.9 1382.55 C 30264.9 908.844 30162.4 421.297 29818.9 72.25 C 29782.9 39 29782.9 33.4688 29782.9 25.1563 C 29782.9 8.53125 29794 -2.54688 29810.6 -2.54688 C 29838.3 -2.54688 30087.6 185.828 30251.1 537.641 C 30392.3 842.359 30425.6 1149.84 30425.6 1382.55 "/>
<path transform="matrix(.00359712,0,0,-.00359712,0,10.87)" d="M 32318.9 2808.81 C 32338.3 2882.48 32369.3 2946.47 32524.4 2950.34 C 32534.1 2950.34 32563.2 2952.28 32563.2 2992.98 C 32563.2 3004.63 32553.5 3020.13 32534.1 3020.13 C 32470.1 3020.13 32398.4 3012.38 32332.5 3012.38 C 32285.9 3012.38 32173.5 3020.13 32126.9 3020.13 C 32117.3 3020.13 32088.2 3020.13 32088.2 2977.48 C 32088.2 2952.28 32113.4 2950.34 32130.8 2950.34 C 32221.9 2948.41 32254.9 2919.31 32254.9 2870.86 C 32254.9 2855.34 32253 2845.66 32247.1 2824.33 L 32035.8 1979.05 L 31543.4 2987.17 C 31527.9 3020.13 31524 3020.13 31477.5 3020.13 L 31211.9 3020.13 C 31175 3020.13 31149.8 3020.13 31149.8 2977.48 C 31149.8 2950.34 31173.1 2950.34 31213.8 2950.34 C 31254.5 2950.34 31297.2 2948.41 31337.9 2940.64 L 31078.1 1903.44 C 31060.7 1829.77 31027.7 1771.61 30876.5 1765.8 C 30862.9 1765.8 30835.8 1763.86 30835.8 1725.08 C 30835.8 1703.75 30851.3 1696 30864.8 1696 C 30928.8 1696 31000.6 1703.75 31066.5 1703.75 C 31113 1703.75 31225.5 1696 31272 1696 C 31291.4 1696 31310.8 1705.69 31310.8 1736.72 C 31310.8 1763.86 31287.5 1765.8 31266.2 1765.8 C 31144 1769.67 31144 1820.08 31144 1847.22 C 31144 1854.97 31144 1864.67 31151.8 1895.69 L 31399.9 2888.3 L 31966 1728.95 C 31981.5 1697.94 31989.3 1696 32008.7 1696 C 32039.7 1696 32039.7 1701.81 32049.4 1736.72 L 32318.9 2808.81 "/>
</g>
</svg>
